  0
SECTION
  2
HEADER
  9
$ACADVER
  1
AC1014
  9
$HANDSEED
  5
FFFF
  9
$MEASUREMENT
 70
     1
  0
ENDSEC
  0
SECTION
  2
TABLES
  0
TABLE
  2
VPORT
  5
8
330
0
100
AcDbSymbolTable
 70
     4
  0
VPORT
  5
2E
330
8
100
AcDbSymbolTableRecord
100
AcDbViewportTableRecord
  2
*ACTIVE
 70
     0
 10
0.0
 20
0.0
 11
1.0
 21
1.0
 12
210.0
 22
148.5
 13
0.0
 23
0.0
 14
10.0
 24
10.0
 15
10.0
 25
10.0
 16
0.0
 26
0.0
 36
1.0
 17
0.0
 27
0.0
 37
0.0
 40
341.0
 41
1.24
 42
50.0
 43
0.0
 44
0.0
 50
0.0
 51
0.0
 71
     0
 72
   100
 73
     1
 74
     3
 75
     0
 76
     0
 77
     0
 78
     0
  0
ENDTAB
  0
TABLE
  2
LTYPE
  5
5
330
0
100
AcDbSymbolTable
 70
     1
  0
LTYPE
  5
14
330
5
100
AcDbSymbolTableRecord
100
AcDbLinetypeTableRecord
  2
BYBLOCK
 70
     0
  3

 72
    65
 73
     0
 40
0.0
  0
LTYPE
  5
15
330
5
100
AcDbSymbolTableRecord
100
AcDbLinetypeTableRecord
  2
BYLAYER
 70
     0
  3

 72
    65
 73
     0
 40
0.0
  0
LTYPE
  5
16
330
5
100
AcDbSymbolTableRecord
100
AcDbLinetypeTableRecord
  2
CONTINUOUS
 70
     0
  3
Solid line
 72
    65
 73
     0
 40
0.0
  0
ENDTAB
  0
TABLE
  2
LAYER
  5
2
100
AcDbSymbolTable
 70
2
  0
LAYER
  5
50
100
AcDbSymbolTableRecord
100
AcDbLayerTableRecord
  2
0
 70
0
  6
CONTINUOUS
  0
LAYER
  5
51
100
AcDbSymbolTableRecord
100
AcDbLayerTableRecord
  2
box_20120803_171113_385466
 70
0
  6
CONTINUOUS
  0
ENDTAB
  0
TABLE
  2
STYLE
  5
3
330
0
100
AcDbSymbolTable
 70
     1
  0
STYLE
  5
11
330
3
100
AcDbSymbolTableRecord
100
AcDbTextStyleTableRecord
  2
STANDARD
 70
     0
 40
0.0
 41
1.0
 50
0.0
 71
     0
 42
2.5
  3
txt
  4

  0
ENDTAB
  0
TABLE
  2
VIEW
  5
6
330
0
100
AcDbSymbolTable
 70
     0
  0
ENDTAB
  0
TABLE
  2
UCS
  5
7
330
0
100
AcDbSymbolTable
 70
     0
  0
ENDTAB
  0
TABLE
  2
APPID
  5
9
330
0
100
AcDbSymbolTable
 70
     2
  0
APPID
  5
12
330
9
100
AcDbSymbolTableRecord
100
AcDbRegAppTableRecord
  2
ACAD
 70
     0
  0
ENDTAB
  0
TABLE
  2
DIMSTYLE
  5
A
330
0
100
AcDbSymbolTable
 70
     1
  0
DIMSTYLE
105
27
330
A
100
AcDbSymbolTableRecord
100
AcDbDimStyleTableRecord
  2
ISO-25
 70
     0
  3

  4

  5

  6

  7

 40
1.0
 41
2.5
 42
0.625
 43
3.75
 44
1.25
 45
0.0
 46
0.0
 47
0.0
 48
0.0
140
2.5
141
2.5
142
0.0
143
0.03937007874016
144
1.0
145
0.0
146
1.0
147
0.625
 71
     0
 72
     0
 73
     0
 74
     0
 75
     0
 76
     0
 77
     1
 78
     8
170
     0
171
     3
172
     1
173
     0
174
     0
175
     0
176
     0
177
     0
178
     0
270
     2
271
     2
272
     2
273
     2
274
     3
340
11
275
     0
280
     0
281
     0
282
     0
283
     0
284
     8
285
     0
286
     0
287
     3
288
     0
  0
ENDTAB
  0
TABLE
  2
BLOCK_RECORD
  5
1
330
0
100
AcDbSymbolTable
 70
     1
  0
BLOCK_RECORD
  5
1F
330
1
100
AcDbSymbolTableRecord
100
AcDbBlockTableRecord
  2
*MODEL_SPACE
  0
BLOCK_RECORD
  5
1B
330
1
100
AcDbSymbolTableRecord
100
AcDbBlockTableRecord
  2
*PAPER_SPACE
  0
ENDTAB
  0
ENDSEC
  0
SECTION
  2
BLOCKS
  0
BLOCK
  5
20
330
1F
100
AcDbEntity
  8
0
100
AcDbBlockBegin
  2
*MODEL_SPACE
 70
     0
 10
0.0
 20
0.0
 30
0.0
  3
*MODEL_SPACE
  1

  0
ENDBLK
  5
21
330
1F
100
AcDbEntity
  8
0
100
AcDbBlockEnd
  0
BLOCK
  5
1C
330
1B
100
AcDbEntity
 67
     1
  8
0
100
AcDbBlockBegin
  2
*PAPER_SPACE
  1

  0
ENDBLK
  5
1D
330
1B
100
AcDbEntity
 67
     1
  8
0
100
AcDbBlockEnd
  0
ENDSEC
  0
SECTION
  2
ENTITIES
  0
LWPOLYLINE
  5
100
100
AcDbEntity
  8
box_20120803_171113_385466
 62
7
100
AcDbPolyline
 90
4
 70
0
 10
119.125725
 20
486.840812
 30
0.0
 10
126.950336
 20
486.840812
 30
0.0
 10
126.950336
 20
483.665812
 30
0.0
 10
134.774947
 20
483.665812
 30
0.0
  0
LWPOLYLINE
  5
101
100
AcDbEntity
  8
box_20120803_171113_385466
 62
7
100
AcDbPolyline
 90
2
 70
0
 10
134.774947
 20
486.840812
 30
0.0
 10
134.774947
 20
483.665812
 30
0.0
  0
LWPOLYLINE
  5
102
100
AcDbEntity
  8
box_20120803_171113_385466
 62
7
100
AcDbPolyline
 90
4
 70
0
 10
134.774947
 20
486.840812
 30
0.0
 10
142.603086
 20
486.840812
 30
0.0
 10
142.603086
 20
483.665812
 30
0.0
 10
150.427697
 20
483.665812
 30
0.0
  0
LWPOLYLINE
  5
103
100
AcDbEntity
  8
box_20120803_171113_385466
 62
7
100
AcDbPolyline
 90
2
 70
0
 10
150.427697
 20
486.840812
 30
0.0
 10
150.427697
 20
483.665812
 30
0.0
  0
LWPOLYLINE
  5
104
100
AcDbEntity
  8
box_20120803_171113_385466
 62
7
100
AcDbPolyline
 90
4
 70
0
 10
150.427697
 20
486.840812
 30
0.0
 10
158.255836
 20
486.840812
 30
0.0
 10
158.255836
 20
483.665812
 30
0.0
 10
166.080447
 20
483.665812
 30
0.0
  0
LWPOLYLINE
  5
105
100
AcDbEntity
  8
box_20120803_171113_385466
 62
7
100
AcDbPolyline
 90
2
 70
0
 10
166.080447
 20
486.840812
 30
0.0
 10
166.080447
 20
483.665812
 30
0.0
  0
LWPOLYLINE
  5
106
100
AcDbEntity
  8
box_20120803_171113_385466
 62
7
100
AcDbPolyline
 90
4
 70
0
 10
166.080447
 20
486.840812
 30
0.0
 10
173.908586
 20
486.840812
 30
0.0
 10
173.908586
 20
483.665812
 30
0.0
 10
181.733197
 20
483.665812
 30
0.0
  0
LWPOLYLINE
  5
107
100
AcDbEntity
  8
box_20120803_171113_385466
 62
7
100
AcDbPolyline
 90
2
 70
0
 10
181.733197
 20
486.840812
 30
0.0
 10
181.733197
 20
483.665812
 30
0.0
  0
LWPOLYLINE
  5
108
100
AcDbEntity
  8
box_20120803_171113_385466
 62
7
100
AcDbPolyline
 90
4
 70
0
 10
181.733197
 20
486.840812
 30
0.0
 10
189.557808
 20
486.840812
 30
0.0
 10
189.557808
 20
483.665812
 30
0.0
 10
197.385947
 20
483.665812
 30
0.0
  0
LWPOLYLINE
  5
109
100
AcDbEntity
  8
box_20120803_171113_385466
 62
7
100
AcDbPolyline
 90
2
 70
0
 10
197.385947
 20
486.840812
 30
0.0
 10
197.385947
 20
483.665812
 30
0.0
  0
LWPOLYLINE
  5
10a
100
AcDbEntity
  8
box_20120803_171113_385466
 62
7
100
AcDbPolyline
 90
4
 70
0
 10
197.385947
 20
486.840812
 30
0.0
 10
205.210558
 20
486.840812
 30
0.0
 10
205.210558
 20
483.665812
 30
0.0
 10
213.038697
 20
483.665812
 30
0.0
  0
LWPOLYLINE
  5
10b
100
AcDbEntity
  8
box_20120803_171113_385466
 62
7
100
AcDbPolyline
 90
2
 70
0
 10
213.038697
 20
486.840812
 30
0.0
 10
213.038697
 20
483.665812
 30
0.0
  0
LWPOLYLINE
  5
10c
100
AcDbEntity
  8
box_20120803_171113_385466
 62
7
100
AcDbPolyline
 90
4
 70
0
 10
213.038697
 20
486.840812
 30
0.0
 10
220.863308
 20
486.840812
 30
0.0
 10
220.863308
 20
483.665812
 30
0.0
 10
228.687919
 20
483.665812
 30
0.0
  0
LWPOLYLINE
  5
10d
100
AcDbEntity
  8
box_20120803_171113_385466
 62
7
100
AcDbPolyline
 90
2
 70
0
 10
228.687919
 20
486.840812
 30
0.0
 10
228.687919
 20
483.665812
 30
0.0
  0
LWPOLYLINE
  5
10e
100
AcDbEntity
  8
box_20120803_171113_385466
 62
7
100
AcDbPolyline
 90
4
 70
0
 10
228.687919
 20
486.840812
 30
0.0
 10
236.516058
 20
486.840812
 30
0.0
 10
236.516058
 20
483.665812
 30
0.0
 10
244.340669
 20
483.665812
 30
0.0
  0
LWPOLYLINE
  5
10f
100
AcDbEntity
  8
box_20120803_171113_385466
 62
7
100
AcDbPolyline
 90
2
 70
0
 10
244.340669
 20
486.840812
 30
0.0
 10
244.340669
 20
483.665812
 30
0.0
  0
LWPOLYLINE
  5
110
100
AcDbEntity
  8
box_20120803_171113_385466
 62
7
100
AcDbPolyline
 90
4
 70
0
 10
244.340669
 20
486.840812
 30
0.0
 10
252.168808
 20
486.840812
 30
0.0
 10
252.168808
 20
483.665812
 30
0.0
 10
259.993419
 20
483.665812
 30
0.0
  0
LWPOLYLINE
  5
111
100
AcDbEntity
  8
box_20120803_171113_385466
 62
7
100
AcDbPolyline
 90
2
 70
0
 10
259.993419
 20
486.840812
 30
0.0
 10
259.993419
 20
483.665812
 30
0.0
  0
LWPOLYLINE
  5
112
100
AcDbEntity
  8
box_20120803_171113_385466
 62
7
100
AcDbPolyline
 90
4
 70
0
 10
259.993419
 20
486.840812
 30
0.0
 10
267.821558
 20
486.840812
 30
0.0
 10
267.821558
 20
483.665812
 30
0.0
 10
275.646169
 20
483.665812
 30
0.0
  0
LWPOLYLINE
  5
113
100
AcDbEntity
  8
box_20120803_171113_385466
 62
7
100
AcDbPolyline
 90
2
 70
0
 10
275.646169
 20
486.840812
 30
0.0
 10
275.646169
 20
483.665812
 30
0.0
  0
LWPOLYLINE
  5
114
100
AcDbEntity
  8
box_20120803_171113_385466
 62
7
100
AcDbPolyline
 90
4
 70
0
 10
275.646169
 20
486.840812
 30
0.0
 10
283.470791
 20
486.840812
 30
0.0
 10
283.470791
 20
483.665812
 30
0.0
 10
291.298930
 20
483.665812
 30
0.0
  0
LWPOLYLINE
  5
115
100
AcDbEntity
  8
box_20120803_171113_385466
 62
7
100
AcDbPolyline
 90
2
 70
0
 10
291.298930
 20
486.840812
 30
0.0
 10
291.298930
 20
483.665812
 30
0.0
  0
LWPOLYLINE
  5
116
100
AcDbEntity
  8
box_20120803_171113_385466
 62
7
100
AcDbPolyline
 90
2
 70
0
 10
291.298930
 20
486.840812
 30
0.0
 10
295.948541
 20
486.840812
 30
0.0
  0
LWPOLYLINE
  5
117
100
AcDbEntity
  8
box_20120803_171113_385466
 62
7
100
AcDbPolyline
 90
2
 70
0
 10
122.300725
 20
424.617868
 30
0.0
 10
119.125725
 20
424.617868
 30
0.0
  0
LWPOLYLINE
  5
118
100
AcDbEntity
  8
box_20120803_171113_385466
 62
7
100
AcDbPolyline
 90
4
 70
0
 10
122.300725
 20
424.617868
 30
0.0
 10
122.300725
 20
432.396618
 30
0.0
 10
119.125725
 20
432.396618
 30
0.0
 10
119.125725
 20
440.175368
 30
0.0
  0
LWPOLYLINE
  5
119
100
AcDbEntity
  8
box_20120803_171113_385466
 62
7
100
AcDbPolyline
 90
2
 70
0
 10
122.300725
 20
440.175368
 30
0.0
 10
119.125725
 20
440.175368
 30
0.0
  0
LWPOLYLINE
  5
11a
100
AcDbEntity
  8
box_20120803_171113_385466
 62
7
100
AcDbPolyline
 90
4
 70
0
 10
122.300725
 20
440.175368
 30
0.0
 10
122.300725
 20
447.954118
 30
0.0
 10
119.125725
 20
447.954118
 30
0.0
 10
119.125725
 20
455.729340
 30
0.0
  0
LWPOLYLINE
  5
11b
100
AcDbEntity
  8
box_20120803_171113_385466
 62
7
100
AcDbPolyline
 90
2
 70
0
 10
122.300725
 20
455.729340
 30
0.0
 10
119.125725
 20
455.729340
 30
0.0
  0
LWPOLYLINE
  5
11c
100
AcDbEntity
  8
box_20120803_171113_385466
 62
7
100
AcDbPolyline
 90
4
 70
0
 10
122.300725
 20
455.729340
 30
0.0
 10
122.300725
 20
463.508090
 30
0.0
 10
119.125725
 20
463.508090
 30
0.0
 10
119.125725
 20
471.286840
 30
0.0
  0
LWPOLYLINE
  5
11d
100
AcDbEntity
  8
box_20120803_171113_385466
 62
7
100
AcDbPolyline
 90
2
 70
0
 10
122.300725
 20
471.286840
 30
0.0
 10
119.125725
 20
471.286840
 30
0.0
  0
LWPOLYLINE
  5
11e
100
AcDbEntity
  8
box_20120803_171113_385466
 62
7
100
AcDbPolyline
 90
4
 70
0
 10
122.300725
 20
471.286840
 30
0.0
 10
122.300725
 20
479.062062
 30
0.0
 10
119.125725
 20
479.062062
 30
0.0
 10
119.125725
 20
486.840812
 30
0.0
  0
LWPOLYLINE
  5
11f
100
AcDbEntity
  8
box_20120803_171113_385466
 62
7
100
AcDbPolyline
 90
4
 70
0
 10
295.948541
 20
424.617868
 30
0.0
 10
295.948541
 20
420.000007
 30
0.0
 10
119.125725
 20
420.012354
 30
0.0
 10
119.125725
 20
424.617762
 30
0.0
  0
LWPOLYLINE
  5
120
100
AcDbEntity
  8
box_20120803_171113_385466
 62
7
100
AcDbPolyline
 90
2
 70
0
 10
299.123541
 20
424.617868
 30
0.0
 10
295.948541
 20
424.617868
 30
0.0
  0
LWPOLYLINE
  5
121
100
AcDbEntity
  8
box_20120803_171113_385466
 62
7
100
AcDbPolyline
 90
4
 70
0
 10
299.123541
 20
424.617868
 30
0.0
 10
299.123541
 20
432.396618
 30
0.0
 10
295.948541
 20
432.396618
 30
0.0
 10
295.948541
 20
440.175368
 30
0.0
  0
LWPOLYLINE
  5
122
100
AcDbEntity
  8
box_20120803_171113_385466
 62
7
100
AcDbPolyline
 90
2
 70
0
 10
299.123541
 20
440.175368
 30
0.0
 10
295.948541
 20
440.175368
 30
0.0
  0
LWPOLYLINE
  5
123
100
AcDbEntity
  8
box_20120803_171113_385466
 62
7
100
AcDbPolyline
 90
4
 70
0
 10
299.123541
 20
440.175368
 30
0.0
 10
299.123541
 20
447.954118
 30
0.0
 10
295.948541
 20
447.954118
 30
0.0
 10
295.948541
 20
455.729340
 30
0.0
  0
LWPOLYLINE
  5
124
100
AcDbEntity
  8
box_20120803_171113_385466
 62
7
100
AcDbPolyline
 90
2
 70
0
 10
299.123541
 20
455.729340
 30
0.0
 10
295.948541
 20
455.729340
 30
0.0
  0
LWPOLYLINE
  5
125
100
AcDbEntity
  8
box_20120803_171113_385466
 62
7
100
AcDbPolyline
 90
4
 70
0
 10
299.123541
 20
455.729340
 30
0.0
 10
299.123541
 20
463.508090
 30
0.0
 10
295.948541
 20
463.508090
 30
0.0
 10
295.948541
 20
471.286840
 30
0.0
  0
LWPOLYLINE
  5
126
100
AcDbEntity
  8
box_20120803_171113_385466
 62
7
100
AcDbPolyline
 90
2
 70
0
 10
299.123541
 20
471.286840
 30
0.0
 10
295.948541
 20
471.286840
 30
0.0
  0
LWPOLYLINE
  5
127
100
AcDbEntity
  8
box_20120803_171113_385466
 62
7
100
AcDbPolyline
 90
4
 70
0
 10
299.123541
 20
471.286840
 30
0.0
 10
299.123541
 20
479.062062
 30
0.0
 10
295.948541
 20
479.062062
 30
0.0
 10
295.948541
 20
486.840812
 30
0.0
  0
LWPOLYLINE
  5
128
100
AcDbEntity
  8
box_20120803_171113_385466
 62
7
100
AcDbPolyline
 90
3
 70
0
 10
94.608752
 20
821.998928
 30
0.0
 10
94.608752
 20
826.888428
 30
0.0
 10
91.402814
 20
826.887863
 30
0.0
  0
LWPOLYLINE
  5
129
100
AcDbEntity
  8
box_20120803_171113_385466
 62
7
100
AcDbPolyline
 90
2
 70
0
 10
27.778534
 20
503.221875
 30
0.0
 10
32.389339
 20
503.221875
 30
0.0
  0
LWPOLYLINE
  5
12a
100
AcDbEntity
  8
box_20120803_171113_385466
 62
7
100
AcDbPolyline
 90
3
 70
0
 10
94.608752
 20
821.998928
 30
0.0
 10
91.433752
 20
821.998928
 30
0.0
 10
91.433752
 20
813.948539
 30
0.0
  0
LWPOLYLINE
  5
12b
100
AcDbEntity
  8
box_20120803_171113_385466
 62
7
100
AcDbPolyline
 90
2
 70
0
 10
94.608752
 20
813.948539
 30
0.0
 10
91.433752
 20
813.948539
 30
0.0
  0
LWPOLYLINE
  5
12c
100
AcDbEntity
  8
box_20120803_171113_385466
 62
7
100
AcDbPolyline
 90
4
 70
0
 10
94.608752
 20
813.948539
 30
0.0
 10
94.608752
 20
805.901678
 30
0.0
 10
91.433752
 20
805.901678
 30
0.0
 10
91.433752
 20
797.851289
 30
0.0
  0
LWPOLYLINE
  5
12d
100
AcDbEntity
  8
box_20120803_171113_385466
 62
7
100
AcDbPolyline
 90
2
 70
0
 10
94.608752
 20
797.851289
 30
0.0
 10
91.433752
 20
797.851289
 30
0.0
  0
LWPOLYLINE
  5
12e
100
AcDbEntity
  8
box_20120803_171113_385466
 62
7
100
AcDbPolyline
 90
3
 70
0
 10
94.608752
 20
757.606400
 30
0.0
 10
91.433752
 20
757.606400
 30
0.0
 10
91.433752
 20
749.559539
 30
0.0
  0
LWPOLYLINE
  5
12f
100
AcDbEntity
  8
box_20120803_171113_385466
 62
7
100
AcDbPolyline
 90
2
 70
0
 10
94.608752
 20
749.559539
 30
0.0
 10
91.433752
 20
749.559539
 30
0.0
  0
LWPOLYLINE
  5
130
100
AcDbEntity
  8
box_20120803_171113_385466
 62
7
100
AcDbPolyline
 90
4
 70
0
 10
94.608752
 20
749.559539
 30
0.0
 10
94.608752
 20
741.509150
 30
0.0
 10
91.433752
 20
741.509150
 30
0.0
 10
91.433752
 20
733.462289
 30
0.0
  0
LWPOLYLINE
  5
131
100
AcDbEntity
  8
box_20120803_171113_385466
 62
7
100
AcDbPolyline
 90
2
 70
0
 10
94.608752
 20
733.462289
 30
0.0
 10
91.433752
 20
733.462289
 30
0.0
  0
LWPOLYLINE
  5
132
100
AcDbEntity
  8
box_20120803_171113_385466
 62
7
100
AcDbPolyline
 90
4
 70
0
 10
94.608752
 20
733.462289
 30
0.0
 10
94.608752
 20
725.411900
 30
0.0
 10
91.433752
 20
725.411900
 30
0.0
 10
91.433752
 20
717.365039
 30
0.0
  0
LWPOLYLINE
  5
133
100
AcDbEntity
  8
box_20120803_171113_385466
 62
7
100
AcDbPolyline
 90
2
 70
0
 10
94.608752
 20
717.365039
 30
0.0
 10
91.433752
 20
717.365039
 30
0.0
  0
LWPOLYLINE
  5
134
100
AcDbEntity
  8
box_20120803_171113_385466
 62
7
100
AcDbPolyline
 90
4
 70
0
 10
94.608752
 20
717.365039
 30
0.0
 10
94.608752
 20
709.314650
 30
0.0
 10
91.433752
 20
709.314650
 30
0.0
 10
91.433752
 20
701.267789
 30
0.0
  0
LWPOLYLINE
  5
135
100
AcDbEntity
  8
box_20120803_171113_385466
 62
7
100
AcDbPolyline
 90
2
 70
0
 10
94.608752
 20
701.267789
 30
0.0
 10
91.433752
 20
701.267789
 30
0.0
  0
LWPOLYLINE
  5
136
100
AcDbEntity
  8
box_20120803_171113_385466
 62
7
100
AcDbPolyline
 90
4
 70
0
 10
94.608752
 20
701.267789
 30
0.0
 10
94.608752
 20
693.217400
 30
0.0
 10
91.433752
 20
693.217400
 30
0.0
 10
91.433752
 20
685.170539
 30
0.0
  0
LWPOLYLINE
  5
137
100
AcDbEntity
  8
box_20120803_171113_385466
 62
7
100
AcDbPolyline
 90
2
 70
0
 10
94.608752
 20
685.170539
 30
0.0
 10
91.433752
 20
685.170539
 30
0.0
  0
LWPOLYLINE
  5
138
100
AcDbEntity
  8
box_20120803_171113_385466
 62
7
100
AcDbPolyline
 90
4
 70
0
 10
94.608752
 20
685.170539
 30
0.0
 10
94.608752
 20
677.120150
 30
0.0
 10
91.433752
 20
677.120150
 30
0.0
 10
91.433752
 20
669.069761
 30
0.0
  0
LWPOLYLINE
  5
139
100
AcDbEntity
  8
box_20120803_171113_385466
 62
7
100
AcDbPolyline
 90
2
 70
0
 10
94.608752
 20
669.069761
 30
0.0
 10
91.433752
 20
669.069761
 30
0.0
  0
LWPOLYLINE
  5
13a
100
AcDbEntity
  8
box_20120803_171113_385466
 62
7
100
AcDbPolyline
 90
4
 70
0
 10
94.608752
 20
669.069761
 30
0.0
 10
94.608752
 20
661.022900
 30
0.0
 10
91.433752
 20
661.022900
 30
0.0
 10
91.433752
 20
652.972511
 30
0.0
  0
LWPOLYLINE
  5
13b
100
AcDbEntity
  8
box_20120803_171113_385466
 62
7
100
AcDbPolyline
 90
2
 70
0
 10
94.608752
 20
652.972511
 30
0.0
 10
91.433752
 20
652.972511
 30
0.0
  0
LWPOLYLINE
  5
13c
100
AcDbEntity
  8
box_20120803_171113_385466
 62
7
100
AcDbPolyline
 90
4
 70
0
 10
94.608752
 20
652.972511
 30
0.0
 10
94.608752
 20
644.925650
 30
0.0
 10
91.433752
 20
644.925650
 30
0.0
 10
91.433752
 20
636.875261
 30
0.0
  0
LWPOLYLINE
  5
13d
100
AcDbEntity
  8
box_20120803_171113_385466
 62
7
100
AcDbPolyline
 90
2
 70
0
 10
94.608752
 20
636.875261
 30
0.0
 10
91.433752
 20
636.875261
 30
0.0
  0
LWPOLYLINE
  5
13e
100
AcDbEntity
  8
box_20120803_171113_385466
 62
7
100
AcDbPolyline
 90
4
 70
0
 10
94.608752
 20
636.875261
 30
0.0
 10
94.608752
 20
628.828400
 30
0.0
 10
91.433752
 20
628.828400
 30
0.0
 10
91.433752
 20
620.778011
 30
0.0
  0
LWPOLYLINE
  5
13f
100
AcDbEntity
  8
box_20120803_171113_385466
 62
7
100
AcDbPolyline
 90
2
 70
0
 10
94.608752
 20
620.778011
 30
0.0
 10
91.433752
 20
620.778011
 30
0.0
  0
LWPOLYLINE
  5
140
100
AcDbEntity
  8
box_20120803_171113_385466
 62
7
100
AcDbPolyline
 90
4
 70
0
 10
94.608752
 20
620.778011
 30
0.0
 10
94.608752
 20
612.731150
 30
0.0
 10
91.433752
 20
612.731150
 30
0.0
 10
91.433752
 20
604.680761
 30
0.0
  0
LWPOLYLINE
  5
141
100
AcDbEntity
  8
box_20120803_171113_385466
 62
7
100
AcDbPolyline
 90
2
 70
0
 10
94.608752
 20
604.680761
 30
0.0
 10
91.433752
 20
604.680761
 30
0.0
  0
LWPOLYLINE
  5
142
100
AcDbEntity
  8
box_20120803_171113_385466
 62
7
100
AcDbPolyline
 90
4
 70
0
 10
94.608752
 20
604.680761
 30
0.0
 10
94.608752
 20
596.633900
 30
0.0
 10
91.433752
 20
596.633900
 30
0.0
 10
91.433752
 20
588.583511
 30
0.0
  0
LWPOLYLINE
  5
143
100
AcDbEntity
  8
box_20120803_171113_385466
 62
7
100
AcDbPolyline
 90
2
 70
0
 10
94.608752
 20
588.583511
 30
0.0
 10
91.433752
 20
588.583511
 30
0.0
  0
LWPOLYLINE
  5
144
100
AcDbEntity
  8
box_20120803_171113_385466
 62
7
100
AcDbPolyline
 90
4
 70
0
 10
94.608752
 20
588.583511
 30
0.0
 10
94.608752
 20
580.533122
 30
0.0
 10
91.433752
 20
580.533122
 30
0.0
 10
91.433752
 20
572.486261
 30
0.0
  0
LWPOLYLINE
  5
145
100
AcDbEntity
  8
box_20120803_171113_385466
 62
7
100
AcDbPolyline
 90
2
 70
0
 10
94.608752
 20
572.486261
 30
0.0
 10
91.433752
 20
572.486261
 30
0.0
  0
LWPOLYLINE
  5
146
100
AcDbEntity
  8
box_20120803_171113_385466
 62
7
100
AcDbPolyline
 90
4
 70
0
 10
94.608752
 20
572.486261
 30
0.0
 10
94.608752
 20
564.435872
 30
0.0
 10
91.433752
 20
564.435872
 30
0.0
 10
91.433752
 20
556.389011
 30
0.0
  0
LWPOLYLINE
  5
147
100
AcDbEntity
  8
box_20120803_171113_385466
 62
7
100
AcDbPolyline
 90
2
 70
0
 10
94.608752
 20
556.389011
 30
0.0
 10
91.433752
 20
556.389011
 30
0.0
  0
LWPOLYLINE
  5
148
100
AcDbEntity
  8
box_20120803_171113_385466
 62
7
100
AcDbPolyline
 90
3
 70
0
 10
94.608752
 20
516.144122
 30
0.0
 10
91.433752
 20
516.144122
 30
0.0
 10
91.433752
 20
508.097261
 30
0.0
  0
LWPOLYLINE
  5
149
100
AcDbEntity
  8
box_20120803_171113_385466
 62
7
100
AcDbPolyline
 90
2
 70
0
 10
94.608752
 20
508.097261
 30
0.0
 10
91.433752
 20
508.097261
 30
0.0
  0
LWPOLYLINE
  5
14a
100
AcDbEntity
  8
box_20120803_171113_385466
 62
7
100
AcDbPolyline
 90
2
 70
0
 10
94.608752
 20
508.097261
 30
0.0
 10
94.608752
 20
503.221872
 30
0.0
  0
LWPOLYLINE
  5
14b
100
AcDbEntity
  8
box_20120803_171113_385466
 62
7
100
AcDbPolyline
 90
2
 70
0
 10
32.389336
 20
500.046872
 30
0.0
 10
32.389336
 20
503.221872
 30
0.0
  0
LWPOLYLINE
  5
14c
100
AcDbEntity
  8
box_20120803_171113_385466
 62
7
100
AcDbPolyline
 90
4
 70
0
 10
32.389336
 20
500.046872
 30
0.0
 10
40.164558
 20
500.046872
 30
0.0
 10
40.164558
 20
503.221872
 30
0.0
 10
47.943308
 20
503.221872
 30
0.0
  0
LWPOLYLINE
  5
14d
100
AcDbEntity
  8
box_20120803_171113_385466
 62
7
100
AcDbPolyline
 90
2
 70
0
 10
47.943308
 20
500.046872
 30
0.0
 10
47.943308
 20
503.221872
 30
0.0
  0
LWPOLYLINE
  5
14e
100
AcDbEntity
  8
box_20120803_171113_385466
 62
7
100
AcDbPolyline
 90
4
 70
0
 10
47.943308
 20
500.046872
 30
0.0
 10
55.722058
 20
500.046872
 30
0.0
 10
55.722058
 20
503.221872
 30
0.0
 10
63.497280
 20
503.221872
 30
0.0
  0
LWPOLYLINE
  5
14f
100
AcDbEntity
  8
box_20120803_171113_385466
 62
7
100
AcDbPolyline
 90
2
 70
0
 10
63.497280
 20
500.046872
 30
0.0
 10
63.497280
 20
503.221872
 30
0.0
  0
LWPOLYLINE
  5
150
100
AcDbEntity
  8
box_20120803_171113_385466
 62
7
100
AcDbPolyline
 90
4
 70
0
 10
63.497280
 20
500.046872
 30
0.0
 10
71.276030
 20
500.046872
 30
0.0
 10
71.276030
 20
503.221872
 30
0.0
 10
79.054780
 20
503.221872
 30
0.0
  0
LWPOLYLINE
  5
151
100
AcDbEntity
  8
box_20120803_171113_385466
 62
7
100
AcDbPolyline
 90
2
 70
0
 10
79.054780
 20
500.046872
 30
0.0
 10
79.054780
 20
503.221872
 30
0.0
  0
LWPOLYLINE
  5
152
100
AcDbEntity
  8
box_20120803_171113_385466
 62
7
100
AcDbPolyline
 90
4
 70
0
 10
79.054780
 20
500.046872
 30
0.0
 10
86.833530
 20
500.046872
 30
0.0
 10
86.833530
 20
503.221872
 30
0.0
 10
94.608752
 20
503.221872
 30
0.0
  0
LWPOLYLINE
  5
153
100
AcDbEntity
  8
box_20120803_171113_385466
 62
7
100
AcDbPolyline
 90
4
 70
0
 10
122.300725
 20
500.017062
 30
0.0
 10
126.950336
 20
500.017062
 30
0.0
 10
126.950336
 20
496.842062
 30
0.0
 10
134.774947
 20
496.842062
 30
0.0
  0
LWPOLYLINE
  5
154
100
AcDbEntity
  8
box_20120803_171113_385466
 62
7
100
AcDbPolyline
 90
2
 70
0
 10
134.774947
 20
500.017062
 30
0.0
 10
134.774947
 20
496.842062
 30
0.0
  0
LWPOLYLINE
  5
155
100
AcDbEntity
  8
box_20120803_171113_385466
 62
7
100
AcDbPolyline
 90
4
 70
0
 10
134.774947
 20
500.017062
 30
0.0
 10
142.603086
 20
500.017062
 30
0.0
 10
142.603086
 20
496.842062
 30
0.0
 10
150.427697
 20
496.842062
 30
0.0
  0
LWPOLYLINE
  5
156
100
AcDbEntity
  8
box_20120803_171113_385466
 62
7
100
AcDbPolyline
 90
2
 70
0
 10
150.427697
 20
500.017062
 30
0.0
 10
150.427697
 20
496.842062
 30
0.0
  0
LWPOLYLINE
  5
157
100
AcDbEntity
  8
box_20120803_171113_385466
 62
7
100
AcDbPolyline
 90
4
 70
0
 10
150.427697
 20
500.017062
 30
0.0
 10
158.255836
 20
500.017062
 30
0.0
 10
158.255836
 20
496.842062
 30
0.0
 10
166.080447
 20
496.842062
 30
0.0
  0
LWPOLYLINE
  5
158
100
AcDbEntity
  8
box_20120803_171113_385466
 62
7
100
AcDbPolyline
 90
2
 70
0
 10
166.080447
 20
500.017062
 30
0.0
 10
166.080447
 20
496.842062
 30
0.0
  0
LWPOLYLINE
  5
159
100
AcDbEntity
  8
box_20120803_171113_385466
 62
7
100
AcDbPolyline
 90
4
 70
0
 10
166.080447
 20
500.017062
 30
0.0
 10
173.908586
 20
500.017062
 30
0.0
 10
173.908586
 20
496.842062
 30
0.0
 10
181.733197
 20
496.842062
 30
0.0
  0
LWPOLYLINE
  5
15a
100
AcDbEntity
  8
box_20120803_171113_385466
 62
7
100
AcDbPolyline
 90
2
 70
0
 10
181.733197
 20
500.017062
 30
0.0
 10
181.733197
 20
496.842062
 30
0.0
  0
LWPOLYLINE
  5
15b
100
AcDbEntity
  8
box_20120803_171113_385466
 62
7
100
AcDbPolyline
 90
4
 70
0
 10
181.733197
 20
500.017062
 30
0.0
 10
189.557808
 20
500.017062
 30
0.0
 10
189.557808
 20
496.842062
 30
0.0
 10
197.385947
 20
496.842062
 30
0.0
  0
LWPOLYLINE
  5
15c
100
AcDbEntity
  8
box_20120803_171113_385466
 62
7
100
AcDbPolyline
 90
2
 70
0
 10
197.385947
 20
500.017062
 30
0.0
 10
197.385947
 20
496.842062
 30
0.0
  0
LWPOLYLINE
  5
15d
100
AcDbEntity
  8
box_20120803_171113_385466
 62
7
100
AcDbPolyline
 90
4
 70
0
 10
197.385947
 20
500.017062
 30
0.0
 10
205.210558
 20
500.017062
 30
0.0
 10
205.210558
 20
496.842062
 30
0.0
 10
213.038697
 20
496.842062
 30
0.0
  0
LWPOLYLINE
  5
15e
100
AcDbEntity
  8
box_20120803_171113_385466
 62
7
100
AcDbPolyline
 90
2
 70
0
 10
213.038697
 20
500.017062
 30
0.0
 10
213.038697
 20
496.842062
 30
0.0
  0
LWPOLYLINE
  5
15f
100
AcDbEntity
  8
box_20120803_171113_385466
 62
7
100
AcDbPolyline
 90
4
 70
0
 10
213.038697
 20
500.017062
 30
0.0
 10
220.863308
 20
500.017062
 30
0.0
 10
220.863308
 20
496.842062
 30
0.0
 10
228.687919
 20
496.842062
 30
0.0
  0
LWPOLYLINE
  5
160
100
AcDbEntity
  8
box_20120803_171113_385466
 62
7
100
AcDbPolyline
 90
2
 70
0
 10
228.687919
 20
500.017062
 30
0.0
 10
228.687919
 20
496.842062
 30
0.0
  0
LWPOLYLINE
  5
161
100
AcDbEntity
  8
box_20120803_171113_385466
 62
7
100
AcDbPolyline
 90
4
 70
0
 10
228.687919
 20
500.017062
 30
0.0
 10
236.516058
 20
500.017062
 30
0.0
 10
236.516058
 20
496.842062
 30
0.0
 10
244.340669
 20
496.842062
 30
0.0
  0
LWPOLYLINE
  5
162
100
AcDbEntity
  8
box_20120803_171113_385466
 62
7
100
AcDbPolyline
 90
2
 70
0
 10
244.340669
 20
500.017062
 30
0.0
 10
244.340669
 20
496.842062
 30
0.0
  0
LWPOLYLINE
  5
163
100
AcDbEntity
  8
box_20120803_171113_385466
 62
7
100
AcDbPolyline
 90
4
 70
0
 10
244.340669
 20
500.017062
 30
0.0
 10
252.168808
 20
500.017062
 30
0.0
 10
252.168808
 20
496.842062
 30
0.0
 10
259.993419
 20
496.842062
 30
0.0
  0
LWPOLYLINE
  5
164
100
AcDbEntity
  8
box_20120803_171113_385466
 62
7
100
AcDbPolyline
 90
2
 70
0
 10
259.993419
 20
500.017062
 30
0.0
 10
259.993419
 20
496.842062
 30
0.0
  0
LWPOLYLINE
  5
165
100
AcDbEntity
  8
box_20120803_171113_385466
 62
7
100
AcDbPolyline
 90
4
 70
0
 10
259.993419
 20
500.017062
 30
0.0
 10
267.821558
 20
500.017062
 30
0.0
 10
267.821558
 20
496.842062
 30
0.0
 10
275.646169
 20
496.842062
 30
0.0
  0
LWPOLYLINE
  5
166
100
AcDbEntity
  8
box_20120803_171113_385466
 62
7
100
AcDbPolyline
 90
2
 70
0
 10
275.646169
 20
500.017062
 30
0.0
 10
275.646169
 20
496.842062
 30
0.0
  0
LWPOLYLINE
  5
167
100
AcDbEntity
  8
box_20120803_171113_385466
 62
7
100
AcDbPolyline
 90
4
 70
0
 10
275.646169
 20
500.017062
 30
0.0
 10
283.470791
 20
500.017062
 30
0.0
 10
283.470791
 20
496.842062
 30
0.0
 10
291.298930
 20
496.842062
 30
0.0
  0
LWPOLYLINE
  5
168
100
AcDbEntity
  8
box_20120803_171113_385466
 62
7
100
AcDbPolyline
 90
2
 70
0
 10
291.298930
 20
500.017062
 30
0.0
 10
291.298930
 20
496.842062
 30
0.0
  0
LWPOLYLINE
  5
169
100
AcDbEntity
  8
box_20120803_171113_385466
 62
7
100
AcDbPolyline
 90
4
 70
0
 10
291.298930
 20
500.017062
 30
0.0
 10
295.948541
 20
500.017062
 30
0.0
 10
299.102374
 20
500.027646
 30
0.0
 10
299.123541
 20
504.888923
 30
0.0
  0
LWPOLYLINE
  5
16a
100
AcDbEntity
  8
box_20120803_171113_385466
 62
7
100
AcDbPolyline
 90
24
 70
0
 10
122.300725
 20
823.665979
 30
0.0
 10
126.950336
 20
823.665979
 30
0.0
 10
134.774947
 20
823.665979
 30
0.0
 10
142.603086
 20
823.665979
 30
0.0
 10
150.427697
 20
823.665979
 30
0.0
 10
158.255836
 20
823.665979
 30
0.0
 10
166.080447
 20
823.665979
 30
0.0
 10
173.908586
 20
823.665979
 30
0.0
 10
181.733197
 20
823.665979
 30
0.0
 10
189.557808
 20
823.665979
 30
0.0
 10
197.385947
 20
823.665979
 30
0.0
 10
205.210558
 20
823.665979
 30
0.0
 10
213.038697
 20
823.665979
 30
0.0
 10
220.863308
 20
823.665979
 30
0.0
 10
228.687919
 20
823.665979
 30
0.0
 10
236.516058
 20
823.665979
 30
0.0
 10
244.340669
 20
823.665979
 30
0.0
 10
252.168808
 20
823.665979
 30
0.0
 10
259.993419
 20
823.665979
 30
0.0
 10
267.821558
 20
823.665979
 30
0.0
 10
275.646169
 20
823.665979
 30
0.0
 10
283.470791
 20
823.665979
 30
0.0
 10
291.298930
 20
823.665979
 30
0.0
 10
295.948541
 20
823.665979
 30
0.0
  0
LWPOLYLINE
  5
16b
100
AcDbEntity
  8
box_20120803_171113_385466
 62
7
100
AcDbPolyline
 90
2
 70
0
 10
295.948541
 20
500.017062
 30
0.0
 10
295.948541
 20
504.888923
 30
0.0
  0
LWPOLYLINE
  5
16c
100
AcDbEntity
  8
box_20120803_171113_385466
 62
7
100
AcDbPolyline
 90
2
 70
0
 10
299.123541
 20
504.888923
 30
0.0
 10
295.948541
 20
504.888923
 30
0.0
  0
LWPOLYLINE
  5
16d
100
AcDbEntity
  8
box_20120803_171113_385466
 62
7
100
AcDbPolyline
 90
5
 70
0
 10
299.123541
 20
512.939312
 30
0.0
 10
295.948541
 20
512.939312
 30
0.0
 10
295.948541
 20
553.184201
 30
0.0
 10
299.123541
 20
553.184201
 30
0.0
 10
299.123541
 20
512.939312
 30
0.0
  0
LWPOLYLINE
  5
16e
100
AcDbEntity
  8
box_20120803_171113_385466
 62
7
100
AcDbPolyline
 90
2
 70
0
 10
299.123541
 20
561.231062
 30
0.0
 10
299.123541
 20
569.281451
 30
0.0
  0
LWPOLYLINE
  5
16f
100
AcDbEntity
  8
box_20120803_171113_385466
 62
7
100
AcDbPolyline
 90
3
 70
0
 10
299.123541
 20
561.231062
 30
0.0
 10
295.948541
 20
561.231062
 30
0.0
 10
295.948541
 20
569.281451
 30
0.0
  0
LWPOLYLINE
  5
170
100
AcDbEntity
  8
box_20120803_171113_385466
 62
7
100
AcDbPolyline
 90
2
 70
0
 10
299.123541
 20
569.281451
 30
0.0
 10
295.948541
 20
569.281451
 30
0.0
  0
LWPOLYLINE
  5
171
100
AcDbEntity
  8
box_20120803_171113_385466
 62
7
100
AcDbPolyline
 90
2
 70
0
 10
295.948541
 20
577.328312
 30
0.0
 10
295.948541
 20
585.378701
 30
0.0
  0
LWPOLYLINE
  5
172
100
AcDbEntity
  8
box_20120803_171113_385466
 62
7
100
AcDbPolyline
 90
2
 70
0
 10
299.123541
 20
585.378701
 30
0.0
 10
295.948541
 20
585.378701
 30
0.0
  0
LWPOLYLINE
  5
173
100
AcDbEntity
  8
box_20120803_171113_385466
 62
7
100
AcDbPolyline
 90
3
 70
0
 10
295.948541
 20
577.328312
 30
0.0
 10
299.123541
 20
577.328312
 30
0.0
 10
299.123541
 20
585.378701
 30
0.0
  0
LWPOLYLINE
  5
174
100
AcDbEntity
  8
box_20120803_171113_385466
 62
7
100
AcDbPolyline
 90
2
 70
0
 10
299.123541
 20
593.425562
 30
0.0
 10
299.123541
 20
601.475951
 30
0.0
  0
LWPOLYLINE
  5
175
100
AcDbEntity
  8
box_20120803_171113_385466
 62
7
100
AcDbPolyline
 90
3
 70
0
 10
299.123541
 20
593.425562
 30
0.0
 10
295.948541
 20
593.425562
 30
0.0
 10
295.948541
 20
601.475951
 30
0.0
  0
LWPOLYLINE
  5
176
100
AcDbEntity
  8
box_20120803_171113_385466
 62
7
100
AcDbPolyline
 90
2
 70
0
 10
299.123541
 20
601.475951
 30
0.0
 10
295.948541
 20
601.475951
 30
0.0
  0
LWPOLYLINE
  5
177
100
AcDbEntity
  8
box_20120803_171113_385466
 62
7
100
AcDbPolyline
 90
2
 70
0
 10
295.948541
 20
609.522812
 30
0.0
 10
295.948541
 20
617.573201
 30
0.0
  0
LWPOLYLINE
  5
178
100
AcDbEntity
  8
box_20120803_171113_385466
 62
7
100
AcDbPolyline
 90
2
 70
0
 10
299.123541
 20
617.573201
 30
0.0
 10
295.948541
 20
617.573201
 30
0.0
  0
LWPOLYLINE
  5
179
100
AcDbEntity
  8
box_20120803_171113_385466
 62
7
100
AcDbPolyline
 90
3
 70
0
 10
295.948541
 20
609.522812
 30
0.0
 10
299.123541
 20
609.522812
 30
0.0
 10
299.123541
 20
617.573201
 30
0.0
  0
LWPOLYLINE
  5
17a
100
AcDbEntity
  8
box_20120803_171113_385466
 62
7
100
AcDbPolyline
 90
2
 70
0
 10
299.123541
 20
625.623590
 30
0.0
 10
299.123541
 20
633.670451
 30
0.0
  0
LWPOLYLINE
  5
17b
100
AcDbEntity
  8
box_20120803_171113_385466
 62
7
100
AcDbPolyline
 90
2
 70
0
 10
299.123541
 20
641.720840
 30
0.0
 10
299.123541
 20
649.767701
 30
0.0
  0
LWPOLYLINE
  5
17c
100
AcDbEntity
  8
box_20120803_171113_385466
 62
7
100
AcDbPolyline
 90
2
 70
0
 10
299.123541
 20
657.818090
 30
0.0
 10
299.123541
 20
665.864951
 30
0.0
  0
LWPOLYLINE
  5
17d
100
AcDbEntity
  8
box_20120803_171113_385466
 62
7
100
AcDbPolyline
 90
2
 70
0
 10
299.123541
 20
673.915340
 30
0.0
 10
299.123541
 20
681.962201
 30
0.0
  0
LWPOLYLINE
  5
17e
100
AcDbEntity
  8
box_20120803_171113_385466
 62
7
100
AcDbPolyline
 90
2
 70
0
 10
299.123541
 20
690.012590
 30
0.0
 10
299.123541
 20
698.059451
 30
0.0
  0
LWPOLYLINE
  5
17f
100
AcDbEntity
  8
box_20120803_171113_385466
 62
7
100
AcDbPolyline
 90
2
 70
0
 10
299.123541
 20
706.109840
 30
0.0
 10
299.123541
 20
714.156701
 30
0.0
  0
LWPOLYLINE
  5
180
100
AcDbEntity
  8
box_20120803_171113_385466
 62
7
100
AcDbPolyline
 90
2
 70
0
 10
299.123541
 20
722.207090
 30
0.0
 10
299.123541
 20
730.257479
 30
0.0
  0
LWPOLYLINE
  5
181
100
AcDbEntity
  8
box_20120803_171113_385466
 62
7
100
AcDbPolyline
 90
2
 70
0
 10
299.123541
 20
738.304340
 30
0.0
 10
299.123541
 20
746.354729
 30
0.0
  0
LWPOLYLINE
  5
182
100
AcDbEntity
  8
box_20120803_171113_385466
 62
7
100
AcDbPolyline
 90
3
 70
0
 10
299.123541
 20
625.623590
 30
0.0
 10
295.948541
 20
625.623590
 30
0.0
 10
295.948541
 20
633.670451
 30
0.0
  0
LWPOLYLINE
  5
183
100
AcDbEntity
  8
box_20120803_171113_385466
 62
7
100
AcDbPolyline
 90
2
 70
0
 10
299.123541
 20
633.670451
 30
0.0
 10
295.948541
 20
633.670451
 30
0.0
  0
LWPOLYLINE
  5
184
100
AcDbEntity
  8
box_20120803_171113_385466
 62
7
100
AcDbPolyline
 90
3
 70
0
 10
299.123541
 20
641.720840
 30
0.0
 10
295.948541
 20
641.720840
 30
0.0
 10
295.948541
 20
649.767701
 30
0.0
  0
LWPOLYLINE
  5
185
100
AcDbEntity
  8
box_20120803_171113_385466
 62
7
100
AcDbPolyline
 90
2
 70
0
 10
299.123541
 20
649.767701
 30
0.0
 10
295.948541
 20
649.767701
 30
0.0
  0
LWPOLYLINE
  5
186
100
AcDbEntity
  8
box_20120803_171113_385466
 62
7
100
AcDbPolyline
 90
3
 70
0
 10
299.123541
 20
657.818090
 30
0.0
 10
295.948541
 20
657.818090
 30
0.0
 10
295.948541
 20
665.864951
 30
0.0
  0
LWPOLYLINE
  5
187
100
AcDbEntity
  8
box_20120803_171113_385466
 62
7
100
AcDbPolyline
 90
2
 70
0
 10
299.123541
 20
665.864951
 30
0.0
 10
295.948541
 20
665.864951
 30
0.0
  0
LWPOLYLINE
  5
188
100
AcDbEntity
  8
box_20120803_171113_385466
 62
7
100
AcDbPolyline
 90
3
 70
0
 10
299.123541
 20
673.915340
 30
0.0
 10
295.948541
 20
673.915340
 30
0.0
 10
295.948541
 20
681.962201
 30
0.0
  0
LWPOLYLINE
  5
189
100
AcDbEntity
  8
box_20120803_171113_385466
 62
7
100
AcDbPolyline
 90
2
 70
0
 10
299.123541
 20
681.962201
 30
0.0
 10
295.948541
 20
681.962201
 30
0.0
  0
LWPOLYLINE
  5
18a
100
AcDbEntity
  8
box_20120803_171113_385466
 62
7
100
AcDbPolyline
 90
3
 70
0
 10
299.123541
 20
690.012590
 30
0.0
 10
295.948541
 20
690.012590
 30
0.0
 10
295.948541
 20
698.059451
 30
0.0
  0
LWPOLYLINE
  5
18b
100
AcDbEntity
  8
box_20120803_171113_385466
 62
7
100
AcDbPolyline
 90
2
 70
0
 10
299.123541
 20
698.059451
 30
0.0
 10
295.948541
 20
698.059451
 30
0.0
  0
LWPOLYLINE
  5
18c
100
AcDbEntity
  8
box_20120803_171113_385466
 62
7
100
AcDbPolyline
 90
3
 70
0
 10
299.123541
 20
706.109840
 30
0.0
 10
295.948541
 20
706.109840
 30
0.0
 10
295.948541
 20
714.156701
 30
0.0
  0
LWPOLYLINE
  5
18d
100
AcDbEntity
  8
box_20120803_171113_385466
 62
7
100
AcDbPolyline
 90
2
 70
0
 10
299.123541
 20
714.156701
 30
0.0
 10
295.948541
 20
714.156701
 30
0.0
  0
LWPOLYLINE
  5
18e
100
AcDbEntity
  8
box_20120803_171113_385466
 62
7
100
AcDbPolyline
 90
3
 70
0
 10
299.123541
 20
722.207090
 30
0.0
 10
295.948541
 20
722.207090
 30
0.0
 10
295.948541
 20
730.257479
 30
0.0
  0
LWPOLYLINE
  5
18f
100
AcDbEntity
  8
box_20120803_171113_385466
 62
7
100
AcDbPolyline
 90
2
 70
0
 10
299.123541
 20
730.257479
 30
0.0
 10
295.948541
 20
730.257479
 30
0.0
  0
LWPOLYLINE
  5
190
100
AcDbEntity
  8
box_20120803_171113_385466
 62
7
100
AcDbPolyline
 90
3
 70
0
 10
299.123541
 20
738.304340
 30
0.0
 10
295.948541
 20
738.304340
 30
0.0
 10
295.948541
 20
746.354729
 30
0.0
  0
LWPOLYLINE
  5
191
100
AcDbEntity
  8
box_20120803_171113_385466
 62
7
100
AcDbPolyline
 90
2
 70
0
 10
299.123541
 20
746.354729
 30
0.0
 10
295.948541
 20
746.354729
 30
0.0
  0
LWPOLYLINE
  5
192
100
AcDbEntity
  8
box_20120803_171113_385466
 62
7
100
AcDbPolyline
 90
5
 70
0
 10
299.123541
 20
754.401590
 30
0.0
 10
295.948541
 20
754.401590
 30
0.0
 10
295.948541
 20
794.646479
 30
0.0
 10
299.123541
 20
794.646479
 30
0.0
 10
299.123541
 20
754.401590
 30
0.0
  0
LWPOLYLINE
  5
193
100
AcDbEntity
  8
box_20120803_171113_385466
 62
7
100
AcDbPolyline
 90
3
 70
0
 10
299.123541
 20
802.693340
 30
0.0
 10
295.948541
 20
802.693340
 30
0.0
 10
295.948541
 20
810.743729
 30
0.0
  0
SPLINE
  5
194
100
AcDbEntity
  8
box_20120803_171113_385466
 62
7
100
AcDbSpline
 70
8
 71
3
 72
8
 73
4
 74
0
 40
0
 40
0
 40
0
 40
0
 40
1
 40
1
 40
1
 40
1
 10
299.108477
 20
810.767929
 30
0.0
 10
299.103538
 20
807.826045
 30
0.0
 10
299.102480
 20
805.039736
 30
0.0
 10
299.102480
 20
802.697856
 30
0.0
  0
LWPOLYLINE
  5
195
100
AcDbEntity
  8
box_20120803_171113_385466
 62
7
100
AcDbPolyline
 90
2
 70
0
 10
299.123541
 20
810.743729
 30
0.0
 10
295.948541
 20
810.743729
 30
0.0
  0
LWPOLYLINE
  5
196
100
AcDbEntity
  8
box_20120803_171113_385466
 62
7
100
AcDbPolyline
 90
5
 70
0
 10
295.948541
 20
818.794118
 30
0.0
 10
295.948541
 20
823.665979
 30
0.0
 10
299.102374
 20
823.665979
 30
0.0
 10
299.123541
 20
818.794118
 30
0.0
 10
295.948541
 20
818.794118
 30
0.0
  0
LWPOLYLINE
  5
197
100
AcDbEntity
  8
box_20120803_171113_385466
 62
7
100
AcDbPolyline
 90
4
 70
0
 10
325.333184
 20
496.841385
 30
0.0
 10
325.333184
 20
504.888246
 30
0.0
 10
328.508184
 20
504.888246
 30
0.0
 10
328.508184
 20
512.938635
 30
0.0
  0
LWPOLYLINE
  5
198
100
AcDbEntity
  8
box_20120803_171113_385466
 62
7
100
AcDbPolyline
 90
2
 70
0
 10
325.333184
 20
512.938635
 30
0.0
 10
328.508184
 20
512.938635
 30
0.0
  0
LWPOLYLINE
  5
199
100
AcDbEntity
  8
box_20120803_171113_385466
 62
7
100
AcDbPolyline
 90
3
 70
0
 10
325.333184
 20
553.183524
 30
0.0
 10
328.508184
 20
553.183524
 30
0.0
 10
328.508184
 20
561.230385
 30
0.0
  0
LWPOLYLINE
  5
19a
100
AcDbEntity
  8
box_20120803_171113_385466
 62
7
100
AcDbPolyline
 90
2
 70
0
 10
325.333184
 20
561.230385
 30
0.0
 10
328.508184
 20
561.230385
 30
0.0
  0
LWPOLYLINE
  5
19b
100
AcDbEntity
  8
box_20120803_171113_385466
 62
7
100
AcDbPolyline
 90
4
 70
0
 10
325.333184
 20
561.230385
 30
0.0
 10
325.333184
 20
569.280774
 30
0.0
 10
328.508184
 20
569.280774
 30
0.0
 10
328.508184
 20
577.327635
 30
0.0
  0
LWPOLYLINE
  5
19c
100
AcDbEntity
  8
box_20120803_171113_385466
 62
7
100
AcDbPolyline
 90
2
 70
0
 10
325.333184
 20
577.327635
 30
0.0
 10
328.508184
 20
577.327635
 30
0.0
  0
LWPOLYLINE
  5
19d
100
AcDbEntity
  8
box_20120803_171113_385466
 62
7
100
AcDbPolyline
 90
4
 70
0
 10
325.333184
 20
577.327635
 30
0.0
 10
325.333184
 20
585.378024
 30
0.0
 10
328.508184
 20
585.378024
 30
0.0
 10
328.508184
 20
593.424885
 30
0.0
  0
LWPOLYLINE
  5
19e
100
AcDbEntity
  8
box_20120803_171113_385466
 62
7
100
AcDbPolyline
 90
2
 70
0
 10
325.333184
 20
593.424885
 30
0.0
 10
328.508184
 20
593.424885
 30
0.0
  0
LWPOLYLINE
  5
19f
100
AcDbEntity
  8
box_20120803_171113_385466
 62
7
100
AcDbPolyline
 90
4
 70
0
 10
325.333184
 20
593.424885
 30
0.0
 10
325.333184
 20
601.475274
 30
0.0
 10
328.508184
 20
601.475274
 30
0.0
 10
328.508184
 20
609.522135
 30
0.0
  0
LWPOLYLINE
  5
1a0
100
AcDbEntity
  8
box_20120803_171113_385466
 62
7
100
AcDbPolyline
 90
2
 70
0
 10
325.333184
 20
609.522135
 30
0.0
 10
328.508184
 20
609.522135
 30
0.0
  0
LWPOLYLINE
  5
1a1
100
AcDbEntity
  8
box_20120803_171113_385466
 62
7
100
AcDbPolyline
 90
4
 70
0
 10
325.333184
 20
609.522135
 30
0.0
 10
325.333184
 20
617.572524
 30
0.0
 10
328.508184
 20
617.572524
 30
0.0
 10
328.508184
 20
625.622913
 30
0.0
  0
LWPOLYLINE
  5
1a2
100
AcDbEntity
  8
box_20120803_171113_385466
 62
7
100
AcDbPolyline
 90
2
 70
0
 10
325.333184
 20
625.622913
 30
0.0
 10
328.508184
 20
625.622913
 30
0.0
  0
LWPOLYLINE
  5
1a3
100
AcDbEntity
  8
box_20120803_171113_385466
 62
7
100
AcDbPolyline
 90
4
 70
0
 10
325.333184
 20
625.622913
 30
0.0
 10
325.333184
 20
633.669774
 30
0.0
 10
328.508184
 20
633.669774
 30
0.0
 10
328.508184
 20
641.720163
 30
0.0
  0
LWPOLYLINE
  5
1a4
100
AcDbEntity
  8
box_20120803_171113_385466
 62
7
100
AcDbPolyline
 90
2
 70
0
 10
325.333184
 20
641.720163
 30
0.0
 10
328.508184
 20
641.720163
 30
0.0
  0
LWPOLYLINE
  5
1a5
100
AcDbEntity
  8
box_20120803_171113_385466
 62
7
100
AcDbPolyline
 90
4
 70
0
 10
325.333184
 20
641.720163
 30
0.0
 10
325.333184
 20
649.767024
 30
0.0
 10
328.508184
 20
649.767024
 30
0.0
 10
328.508184
 20
657.817413
 30
0.0
  0
LWPOLYLINE
  5
1a6
100
AcDbEntity
  8
box_20120803_171113_385466
 62
7
100
AcDbPolyline
 90
2
 70
0
 10
325.333184
 20
657.817413
 30
0.0
 10
328.508184
 20
657.817413
 30
0.0
  0
LWPOLYLINE
  5
1a7
100
AcDbEntity
  8
box_20120803_171113_385466
 62
7
100
AcDbPolyline
 90
4
 70
0
 10
325.333184
 20
657.817413
 30
0.0
 10
325.333184
 20
665.864274
 30
0.0
 10
328.508184
 20
665.864274
 30
0.0
 10
328.508184
 20
673.914663
 30
0.0
  0
LWPOLYLINE
  5
1a8
100
AcDbEntity
  8
box_20120803_171113_385466
 62
7
100
AcDbPolyline
 90
2
 70
0
 10
325.333184
 20
673.914663
 30
0.0
 10
328.508184
 20
673.914663
 30
0.0
  0
LWPOLYLINE
  5
1a9
100
AcDbEntity
  8
box_20120803_171113_385466
 62
7
100
AcDbPolyline
 90
4
 70
0
 10
325.333184
 20
673.914663
 30
0.0
 10
325.333184
 20
681.961524
 30
0.0
 10
328.508184
 20
681.961524
 30
0.0
 10
328.508184
 20
690.011913
 30
0.0
  0
LWPOLYLINE
  5
1aa
100
AcDbEntity
  8
box_20120803_171113_385466
 62
7
100
AcDbPolyline
 90
2
 70
0
 10
325.333184
 20
690.011913
 30
0.0
 10
328.508184
 20
690.011913
 30
0.0
  0
LWPOLYLINE
  5
1ab
100
AcDbEntity
  8
box_20120803_171113_385466
 62
7
100
AcDbPolyline
 90
4
 70
0
 10
325.333184
 20
690.011913
 30
0.0
 10
325.333184
 20
698.058774
 30
0.0
 10
328.508184
 20
698.058774
 30
0.0
 10
328.508184
 20
706.109163
 30
0.0
  0
LWPOLYLINE
  5
1ac
100
AcDbEntity
  8
box_20120803_171113_385466
 62
7
100
AcDbPolyline
 90
2
 70
0
 10
325.333184
 20
706.109163
 30
0.0
 10
328.508184
 20
706.109163
 30
0.0
  0
LWPOLYLINE
  5
1ad
100
AcDbEntity
  8
box_20120803_171113_385466
 62
7
100
AcDbPolyline
 90
4
 70
0
 10
325.333184
 20
706.109163
 30
0.0
 10
325.333184
 20
714.156024
 30
0.0
 10
328.508184
 20
714.156024
 30
0.0
 10
328.508184
 20
722.206413
 30
0.0
  0
LWPOLYLINE
  5
1ae
100
AcDbEntity
  8
box_20120803_171113_385466
 62
7
100
AcDbPolyline
 90
2
 70
0
 10
325.333184
 20
722.206413
 30
0.0
 10
328.508184
 20
722.206413
 30
0.0
  0
LWPOLYLINE
  5
1af
100
AcDbEntity
  8
box_20120803_171113_385466
 62
7
100
AcDbPolyline
 90
4
 70
0
 10
325.333184
 20
722.206413
 30
0.0
 10
325.333184
 20
730.256802
 30
0.0
 10
328.508184
 20
730.256802
 30
0.0
 10
328.508184
 20
738.303663
 30
0.0
  0
LWPOLYLINE
  5
1b0
100
AcDbEntity
  8
box_20120803_171113_385466
 62
7
100
AcDbPolyline
 90
2
 70
0
 10
325.333184
 20
738.303663
 30
0.0
 10
328.508184
 20
738.303663
 30
0.0
  0
LWPOLYLINE
  5
1b1
100
AcDbEntity
  8
box_20120803_171113_385466
 62
7
100
AcDbPolyline
 90
4
 70
0
 10
325.333184
 20
738.303663
 30
0.0
 10
325.333184
 20
746.354052
 30
0.0
 10
328.508184
 20
746.354052
 30
0.0
 10
328.508184
 20
754.400913
 30
0.0
  0
LWPOLYLINE
  5
1b2
100
AcDbEntity
  8
box_20120803_171113_385466
 62
7
100
AcDbPolyline
 90
2
 70
0
 10
325.333184
 20
754.400913
 30
0.0
 10
328.508184
 20
754.400913
 30
0.0
  0
LWPOLYLINE
  5
1b3
100
AcDbEntity
  8
box_20120803_171113_385466
 62
7
100
AcDbPolyline
 90
3
 70
0
 10
325.333184
 20
794.645802
 30
0.0
 10
328.508184
 20
794.645802
 30
0.0
 10
328.508184
 20
802.692663
 30
0.0
  0
LWPOLYLINE
  5
1b4
100
AcDbEntity
  8
box_20120803_171113_385466
 62
7
100
AcDbPolyline
 90
2
 70
0
 10
325.333184
 20
802.692663
 30
0.0
 10
328.508184
 20
802.692663
 30
0.0
  0
LWPOLYLINE
  5
1b5
100
AcDbEntity
  8
box_20120803_171113_385466
 62
7
100
AcDbPolyline
 90
4
 70
0
 10
325.333184
 20
802.692663
 30
0.0
 10
325.333184
 20
810.743052
 30
0.0
 10
328.508184
 20
810.743052
 30
0.0
 10
328.508184
 20
818.789913
 30
0.0
  0
LWPOLYLINE
  5
1b6
100
AcDbEntity
  8
box_20120803_171113_385466
 62
7
100
AcDbPolyline
 90
2
 70
0
 10
325.333184
 20
818.789913
 30
0.0
 10
328.508184
 20
818.789913
 30
0.0
  0
LWPOLYLINE
  5
1b7
100
AcDbEntity
  8
box_20120803_171113_385466
 62
7
100
AcDbPolyline
 90
3
 70
0
 10
325.333184
 20
818.789913
 30
0.0
 10
325.333184
 20
823.665302
 30
0.0
 10
328.523808
 20
823.665302
 30
0.0
  0
SPLINE
  5
1b8
100
AcDbEntity
  8
box_20120803_171113_385466
 62
7
100
AcDbSpline
 70
8
 71
3
 72
8
 73
4
 74
0
 40
0
 40
0
 40
0
 40
0
 40
1
 40
1
 40
1
 40
1
 10
392.145767
 20
496.841385
 30
0.0
 10
390.614711
 20
496.841385
 30
0.0
 10
389.083656
 20
496.841385
 30
0.0
 10
387.552600
 20
496.841385
 30
0.0
  0
LWPOLYLINE
  5
1b9
100
AcDbEntity
  8
box_20120803_171113_385466
 62
7
100
AcDbPolyline
 90
2
 70
0
 10
392.145767
 20
500.012751
 30
0.0
 10
392.145767
 20
496.841385
 30
0.0
  0
LWPOLYLINE
  5
1ba
100
AcDbEntity
  8
box_20120803_171113_385466
 62
7
100
AcDbPolyline
 90
2
 70
0
 10
387.552600
 20
500.016385
 30
0.0
 10
387.552600
 20
496.841385
 30
0.0
  0
LWPOLYLINE
  5
1bb
100
AcDbEntity
  8
box_20120803_171113_385466
 62
7
100
AcDbPolyline
 90
4
 70
0
 10
387.552600
 20
500.016385
 30
0.0
 10
379.777378
 20
500.016385
 30
0.0
 10
379.777378
 20
496.841385
 30
0.0
 10
371.998628
 20
496.841385
 30
0.0
  0
LWPOLYLINE
  5
1bc
100
AcDbEntity
  8
box_20120803_171113_385466
 62
7
100
AcDbPolyline
 90
2
 70
0
 10
371.998628
 20
500.016385
 30
0.0
 10
371.998628
 20
496.841385
 30
0.0
  0
LWPOLYLINE
  5
1bd
100
AcDbEntity
  8
box_20120803_171113_385466
 62
7
100
AcDbPolyline
 90
4
 70
0
 10
371.998628
 20
500.016385
 30
0.0
 10
364.219878
 20
500.016385
 30
0.0
 10
364.219878
 20
496.841385
 30
0.0
 10
356.444656
 20
496.841385
 30
0.0
  0
LWPOLYLINE
  5
1be
100
AcDbEntity
  8
box_20120803_171113_385466
 62
7
100
AcDbPolyline
 90
2
 70
0
 10
356.444656
 20
500.016385
 30
0.0
 10
356.444656
 20
496.841385
 30
0.0
  0
LWPOLYLINE
  5
1bf
100
AcDbEntity
  8
box_20120803_171113_385466
 62
7
100
AcDbPolyline
 90
4
 70
0
 10
356.444656
 20
500.016385
 30
0.0
 10
348.665906
 20
500.016385
 30
0.0
 10
348.665906
 20
496.841385
 30
0.0
 10
340.887156
 20
496.841385
 30
0.0
  0
LWPOLYLINE
  5
1c0
100
AcDbEntity
  8
box_20120803_171113_385466
 62
7
100
AcDbPolyline
 90
2
 70
0
 10
340.887156
 20
500.016385
 30
0.0
 10
340.887156
 20
496.841385
 30
0.0
  0
SPLINE
  5
1c1
100
AcDbEntity
  8
box_20120803_171113_385466
 62
7
100
AcDbSpline
 70
8
 71
3
 72
8
 73
4
 74
0
 40
0
 40
0
 40
0
 40
0
 40
1
 40
1
 40
1
 40
1
 10
328.505100
 20
823.707712
 30
0.0
 10
328.505100
 20
823.707712
 30
0.0
 10
392.343746
 20
771.603916
 30
0.0
 10
392.343746
 20
680.680016
 30
0.0
  0
SPLINE
  5
1c2
100
AcDbEntity
  8
box_20120803_171113_385466
 62
7
100
AcDbSpline
 70
8
 71
3
 72
8
 73
4
 74
0
 40
0
 40
0
 40
0
 40
0
 40
1
 40
1
 40
1
 40
1
 10
392.343746
 20
680.680016
 30
0.0
 10
392.343746
 20
589.756088
 30
0.0
 10
380.484112
 20
595.506224
 30
0.0
 10
377.968411
 20
559.567934
 30
0.0
  0
SPLINE
  5
1c3
100
AcDbEntity
  8
box_20120803_171113_385466
 62
7
100
AcDbSpline
 70
8
 71
3
 72
8
 73
4
 74
0
 40
0
 40
0
 40
0
 40
0
 40
1
 40
1
 40
1
 40
1
 10
377.968411
 20
559.567934
 30
0.0
 10
375.452739
 20
523.629615
 30
0.0
 10
392.041708
 20
500.016392
 30
0.0
 10
392.041708
 20
500.016392
 30
0.0
  0
SPLINE
  5
1c4
100
AcDbEntity
  8
box_20120803_171113_385466
 62
7
100
AcDbSpline
 70
8
 71
3
 72
8
 73
4
 74
0
 40
0
 40
0
 40
0
 40
0
 40
1
 40
1
 40
1
 40
1
 10
91.369254
 20
826.913214
 30
0.0
 10
91.369254
 20
826.913214
 30
0.0
 10
27.530610
 20
774.809432
 30
0.0
 10
27.530610
 20
683.885531
 30
0.0
  0
SPLINE
  5
1c5
100
AcDbEntity
  8
box_20120803_171113_385466
 62
7
100
AcDbSpline
 70
8
 71
3
 72
8
 73
4
 74
0
 40
0
 40
0
 40
0
 40
0
 40
1
 40
1
 40
1
 40
1
 10
27.530610
 20
683.885531
 30
0.0
 10
27.530610
 20
592.961603
 30
0.0
 10
39.390242
 20
598.711740
 30
0.0
 10
41.905943
 20
562.773449
 30
0.0
  0
SPLINE
  5
1c6
100
AcDbEntity
  8
box_20120803_171113_385466
 62
7
100
AcDbSpline
 70
8
 71
3
 72
8
 73
4
 74
0
 40
0
 40
0
 40
0
 40
0
 40
1
 40
1
 40
1
 40
1
 10
41.905943
 20
562.773449
 30
0.0
 10
44.421616
 20
526.835130
 30
0.0
 10
27.832647
 20
503.221907
 30
0.0
 10
27.832647
 20
503.221907
 30
0.0
  0
LWPOLYLINE
  5
1c7
100
AcDbEntity
  8
box_20120803_171113_385466
 62
7
100
AcDbPolyline
 90
4
 70
0
 10
340.887156
 20
500.016385
 30
0.0
 10
333.108406
 20
500.016385
 30
0.0
 10
333.108406
 20
496.841385
 30
0.0
 10
325.333184
 20
496.841385
 30
0.0
  0
LWPOLYLINE
  5
1c8
100
AcDbEntity
  8
box_20120803_171113_385466
 62
7
100
AcDbPolyline
 90
3
 70
0
 10
119.081169
 20
500.017062
 30
0.0
 10
122.235002
 20
500.027646
 30
0.0
 10
122.256169
 20
504.888923
 30
0.0
  0
LWPOLYLINE
  5
1c9
100
AcDbEntity
  8
box_20120803_171113_385466
 62
7
100
AcDbPolyline
 90
2
 70
0
 10
119.081169
 20
500.017062
 30
0.0
 10
119.081169
 20
504.888923
 30
0.0
  0
LWPOLYLINE
  5
1ca
100
AcDbEntity
  8
box_20120803_171113_385466
 62
7
100
AcDbPolyline
 90
2
 70
0
 10
122.256169
 20
504.888923
 30
0.0
 10
119.081169
 20
504.888923
 30
0.0
  0
LWPOLYLINE
  5
1cb
100
AcDbEntity
  8
box_20120803_171113_385466
 62
7
100
AcDbPolyline
 90
2
 70
0
 10
122.256169
 20
561.231062
 30
0.0
 10
122.256169
 20
569.281451
 30
0.0
  0
LWPOLYLINE
  5
1cc
100
AcDbEntity
  8
box_20120803_171113_385466
 62
7
100
AcDbPolyline
 90
5
 70
0
 10
122.256169
 20
553.184201
 30
0.0
 10
119.081169
 20
553.184201
 30
0.0
 10
119.081169
 20
512.939312
 30
0.0
 10
122.256169
 20
512.939312
 30
0.0
 10
122.256169
 20
553.184201
 30
0.0
  0
LWPOLYLINE
  5
1cd
100
AcDbEntity
  8
box_20120803_171113_385466
 62
7
100
AcDbPolyline
 90
3
 70
0
 10
122.256169
 20
561.231062
 30
0.0
 10
119.081169
 20
561.231062
 30
0.0
 10
119.081169
 20
569.281451
 30
0.0
  0
LWPOLYLINE
  5
1ce
100
AcDbEntity
  8
box_20120803_171113_385466
 62
7
100
AcDbPolyline
 90
2
 70
0
 10
122.256169
 20
569.281451
 30
0.0
 10
119.081169
 20
569.281451
 30
0.0
  0
LWPOLYLINE
  5
1cf
100
AcDbEntity
  8
box_20120803_171113_385466
 62
7
100
AcDbPolyline
 90
2
 70
0
 10
119.081169
 20
577.328312
 30
0.0
 10
119.081169
 20
585.378701
 30
0.0
  0
LWPOLYLINE
  5
1d0
100
AcDbEntity
  8
box_20120803_171113_385466
 62
7
100
AcDbPolyline
 90
2
 70
0
 10
122.256169
 20
585.378701
 30
0.0
 10
119.081169
 20
585.378701
 30
0.0
  0
LWPOLYLINE
  5
1d1
100
AcDbEntity
  8
box_20120803_171113_385466
 62
7
100
AcDbPolyline
 90
3
 70
0
 10
119.081169
 20
577.328312
 30
0.0
 10
122.256169
 20
577.328312
 30
0.0
 10
122.256169
 20
585.378701
 30
0.0
  0
LWPOLYLINE
  5
1d2
100
AcDbEntity
  8
box_20120803_171113_385466
 62
7
100
AcDbPolyline
 90
2
 70
0
 10
122.256169
 20
593.425562
 30
0.0
 10
122.256169
 20
601.475951
 30
0.0
  0
LWPOLYLINE
  5
1d3
100
AcDbEntity
  8
box_20120803_171113_385466
 62
7
100
AcDbPolyline
 90
3
 70
0
 10
122.256169
 20
593.425562
 30
0.0
 10
119.081169
 20
593.425562
 30
0.0
 10
119.081169
 20
601.475951
 30
0.0
  0
LWPOLYLINE
  5
1d4
100
AcDbEntity
  8
box_20120803_171113_385466
 62
7
100
AcDbPolyline
 90
2
 70
0
 10
122.256169
 20
601.475951
 30
0.0
 10
119.081169
 20
601.475951
 30
0.0
  0
LWPOLYLINE
  5
1d5
100
AcDbEntity
  8
box_20120803_171113_385466
 62
7
100
AcDbPolyline
 90
2
 70
0
 10
119.081169
 20
609.522812
 30
0.0
 10
119.081169
 20
617.573201
 30
0.0
  0
LWPOLYLINE
  5
1d6
100
AcDbEntity
  8
box_20120803_171113_385466
 62
7
100
AcDbPolyline
 90
2
 70
0
 10
122.256169
 20
617.573201
 30
0.0
 10
119.081169
 20
617.573201
 30
0.0
  0
LWPOLYLINE
  5
1d7
100
AcDbEntity
  8
box_20120803_171113_385466
 62
7
100
AcDbPolyline
 90
3
 70
0
 10
119.081169
 20
609.522812
 30
0.0
 10
122.256169
 20
609.522812
 30
0.0
 10
122.256169
 20
617.573201
 30
0.0
  0
LWPOLYLINE
  5
1d8
100
AcDbEntity
  8
box_20120803_171113_385466
 62
7
100
AcDbPolyline
 90
2
 70
0
 10
122.256169
 20
625.623590
 30
0.0
 10
122.256169
 20
633.670451
 30
0.0
  0
LWPOLYLINE
  5
1d9
100
AcDbEntity
  8
box_20120803_171113_385466
 62
7
100
AcDbPolyline
 90
2
 70
0
 10
122.256169
 20
641.720840
 30
0.0
 10
122.256169
 20
649.767701
 30
0.0
  0
LWPOLYLINE
  5
1da
100
AcDbEntity
  8
box_20120803_171113_385466
 62
7
100
AcDbPolyline
 90
2
 70
0
 10
122.256169
 20
657.818090
 30
0.0
 10
122.256169
 20
665.864951
 30
0.0
  0
LWPOLYLINE
  5
1db
100
AcDbEntity
  8
box_20120803_171113_385466
 62
7
100
AcDbPolyline
 90
2
 70
0
 10
122.256169
 20
673.915340
 30
0.0
 10
122.256169
 20
681.962201
 30
0.0
  0
LWPOLYLINE
  5
1dc
100
AcDbEntity
  8
box_20120803_171113_385466
 62
7
100
AcDbPolyline
 90
2
 70
0
 10
122.256169
 20
690.012590
 30
0.0
 10
122.256169
 20
698.059451
 30
0.0
  0
LWPOLYLINE
  5
1dd
100
AcDbEntity
  8
box_20120803_171113_385466
 62
7
100
AcDbPolyline
 90
2
 70
0
 10
122.256169
 20
706.109840
 30
0.0
 10
122.256169
 20
714.156701
 30
0.0
  0
LWPOLYLINE
  5
1de
100
AcDbEntity
  8
box_20120803_171113_385466
 62
7
100
AcDbPolyline
 90
2
 70
0
 10
122.256169
 20
722.207090
 30
0.0
 10
122.256169
 20
730.257479
 30
0.0
  0
LWPOLYLINE
  5
1df
100
AcDbEntity
  8
box_20120803_171113_385466
 62
7
100
AcDbPolyline
 90
2
 70
0
 10
122.256169
 20
738.304340
 30
0.0
 10
122.256169
 20
746.354729
 30
0.0
  0
LWPOLYLINE
  5
1e0
100
AcDbEntity
  8
box_20120803_171113_385466
 62
7
100
AcDbPolyline
 90
3
 70
0
 10
122.256169
 20
625.623590
 30
0.0
 10
119.081169
 20
625.623590
 30
0.0
 10
119.081169
 20
633.670451
 30
0.0
  0
LWPOLYLINE
  5
1e1
100
AcDbEntity
  8
box_20120803_171113_385466
 62
7
100
AcDbPolyline
 90
2
 70
0
 10
122.256169
 20
633.670451
 30
0.0
 10
119.081169
 20
633.670451
 30
0.0
  0
LWPOLYLINE
  5
1e2
100
AcDbEntity
  8
box_20120803_171113_385466
 62
7
100
AcDbPolyline
 90
3
 70
0
 10
122.256169
 20
641.720840
 30
0.0
 10
119.081169
 20
641.720840
 30
0.0
 10
119.081169
 20
649.767701
 30
0.0
  0
LWPOLYLINE
  5
1e3
100
AcDbEntity
  8
box_20120803_171113_385466
 62
7
100
AcDbPolyline
 90
2
 70
0
 10
122.256169
 20
649.767701
 30
0.0
 10
119.081169
 20
649.767701
 30
0.0
  0
LWPOLYLINE
  5
1e4
100
AcDbEntity
  8
box_20120803_171113_385466
 62
7
100
AcDbPolyline
 90
3
 70
0
 10
122.256169
 20
657.818090
 30
0.0
 10
119.081169
 20
657.818090
 30
0.0
 10
119.081169
 20
665.864951
 30
0.0
  0
LWPOLYLINE
  5
1e5
100
AcDbEntity
  8
box_20120803_171113_385466
 62
7
100
AcDbPolyline
 90
2
 70
0
 10
122.256169
 20
665.864951
 30
0.0
 10
119.081169
 20
665.864951
 30
0.0
  0
LWPOLYLINE
  5
1e6
100
AcDbEntity
  8
box_20120803_171113_385466
 62
7
100
AcDbPolyline
 90
3
 70
0
 10
122.256169
 20
673.915340
 30
0.0
 10
119.081169
 20
673.915340
 30
0.0
 10
119.081169
 20
681.962201
 30
0.0
  0
LWPOLYLINE
  5
1e7
100
AcDbEntity
  8
box_20120803_171113_385466
 62
7
100
AcDbPolyline
 90
2
 70
0
 10
122.256169
 20
681.962201
 30
0.0
 10
119.081169
 20
681.962201
 30
0.0
  0
LWPOLYLINE
  5
1e8
100
AcDbEntity
  8
box_20120803_171113_385466
 62
7
100
AcDbPolyline
 90
3
 70
0
 10
122.256169
 20
690.012590
 30
0.0
 10
119.081169
 20
690.012590
 30
0.0
 10
119.081169
 20
698.059451
 30
0.0
  0
LWPOLYLINE
  5
1e9
100
AcDbEntity
  8
box_20120803_171113_385466
 62
7
100
AcDbPolyline
 90
2
 70
0
 10
122.256169
 20
698.059451
 30
0.0
 10
119.081169
 20
698.059451
 30
0.0
  0
LWPOLYLINE
  5
1ea
100
AcDbEntity
  8
box_20120803_171113_385466
 62
7
100
AcDbPolyline
 90
3
 70
0
 10
122.256169
 20
706.109840
 30
0.0
 10
119.081169
 20
706.109840
 30
0.0
 10
119.081169
 20
714.156701
 30
0.0
  0
LWPOLYLINE
  5
1eb
100
AcDbEntity
  8
box_20120803_171113_385466
 62
7
100
AcDbPolyline
 90
2
 70
0
 10
122.256169
 20
714.156701
 30
0.0
 10
119.081169
 20
714.156701
 30
0.0
  0
LWPOLYLINE
  5
1ec
100
AcDbEntity
  8
box_20120803_171113_385466
 62
7
100
AcDbPolyline
 90
3
 70
0
 10
122.256169
 20
722.207090
 30
0.0
 10
119.081169
 20
722.207090
 30
0.0
 10
119.081169
 20
730.257479
 30
0.0
  0
LWPOLYLINE
  5
1ed
100
AcDbEntity
  8
box_20120803_171113_385466
 62
7
100
AcDbPolyline
 90
2
 70
0
 10
122.256169
 20
730.257479
 30
0.0
 10
119.081169
 20
730.257479
 30
0.0
  0
LWPOLYLINE
  5
1ee
100
AcDbEntity
  8
box_20120803_171113_385466
 62
7
100
AcDbPolyline
 90
3
 70
0
 10
122.256169
 20
738.304340
 30
0.0
 10
119.081169
 20
738.304340
 30
0.0
 10
119.081169
 20
746.354729
 30
0.0
  0
LWPOLYLINE
  5
1ef
100
AcDbEntity
  8
box_20120803_171113_385466
 62
7
100
AcDbPolyline
 90
2
 70
0
 10
122.256169
 20
746.354729
 30
0.0
 10
119.081169
 20
746.354729
 30
0.0
  0
LWPOLYLINE
  5
1f0
100
AcDbEntity
  8
box_20120803_171113_385466
 62
7
100
AcDbPolyline
 90
5
 70
0
 10
122.256169
 20
794.646479
 30
0.0
 10
119.081169
 20
794.646479
 30
0.0
 10
119.081169
 20
754.401590
 30
0.0
 10
122.256169
 20
754.401590
 30
0.0
 10
122.256169
 20
794.646479
 30
0.0
  0
LWPOLYLINE
  5
1f1
100
AcDbEntity
  8
box_20120803_171113_385466
 62
7
100
AcDbPolyline
 90
3
 70
0
 10
122.256169
 20
802.693340
 30
0.0
 10
119.081169
 20
802.693340
 30
0.0
 10
119.081169
 20
810.743729
 30
0.0
  0
SPLINE
  5
1f2
100
AcDbEntity
  8
box_20120803_171113_385466
 62
7
100
AcDbSpline
 70
8
 71
3
 72
8
 73
4
 74
0
 40
0
 40
0
 40
0
 40
0
 40
1
 40
1
 40
1
 40
1
 10
122.241105
 20
810.767929
 30
0.0
 10
122.236166
 20
807.826045
 30
0.0
 10
122.235108
 20
805.039736
 30
0.0
 10
122.235108
 20
802.697856
 30
0.0
  0
LWPOLYLINE
  5
1f3
100
AcDbEntity
  8
box_20120803_171113_385466
 62
7
100
AcDbPolyline
 90
2
 70
0
 10
122.256169
 20
810.743729
 30
0.0
 10
119.081169
 20
810.743729
 30
0.0
  0
LWPOLYLINE
  5
1f4
100
AcDbEntity
  8
box_20120803_171113_385466
 62
7
100
AcDbPolyline
 90
5
 70
0
 10
119.081169
 20
818.794118
 30
0.0
 10
119.081169
 20
823.567236
 30
0.0
 10
116.268556
 20
823.665979
 30
0.0
 10
116.168526
 20
500.046907
 30
0.0
 10
119.065156
 20
500.046907
 30
0.0
  0
LWPOLYLINE
  5
1f5
100
AcDbEntity
  8
box_20120803_171113_385466
 62
7
100
AcDbPolyline
 90
4
 70
0
 10
119.057466
 20
823.665979
 30
0.0
 10
122.235016
 20
823.665979
 30
0.0
 10
122.256183
 20
818.794118
 30
0.0
 10
119.081183
 20
818.794118
 30
0.0
  0
LWPOLYLINE
  5
1f6
100
AcDbEntity
  8
box_20120803_171113_385466
 62
7
100
AcDbPolyline
 90
5
 70
0
 10
94.334087
 20
823.665979
 30
0.0
 10
118.707824
 20
823.665979
 30
0.0
 10
118.707824
 20
500.046942
 30
0.0
 10
94.334087
 20
500.046942
 30
0.0
 10
94.334087
 20
823.665979
 30
0.0
  0
SPLINE
  5
1f7
100
AcDbEntity
  8
box_20120803_171113_385466
 62
7
100
AcDbSpline
 70
8
 71
3
 72
8
 73
4
 74
0
 40
0
 40
0
 40
0
 40
0
 40
1
 40
1
 40
1
 40
1
 10
109.360836
 20
548.693340
 30
0.0
 10
109.119282
 20
548.476946
 30
0.0
 10
108.981614
 20
548.162163
 30
0.0
 10
108.981614
 20
547.837854
 30
0.0
  0
SPLINE
  5
1f8
100
AcDbEntity
  8
box_20120803_171113_385466
 62
7
100
AcDbSpline
 70
8
 71
3
 72
8
 73
4
 74
0
 40
0
 40
0
 40
0
 40
0
 40
1
 40
1
 40
1
 40
1
 10
108.981614
 20
547.837854
 30
0.0
 10
108.981614
 20
547.209310
 30
0.0
 10
109.499576
 20
546.700146
 30
0.0
 10
110.128113
 20
546.700146
 30
0.0
  0
SPLINE
  5
1f9
100
AcDbEntity
  8
box_20120803_171113_385466
 62
7
100
AcDbSpline
 70
8
 71
3
 72
8
 73
4
 74
0
 40
0
 40
0
 40
0
 40
0
 40
1
 40
1
 40
1
 40
1
 10
110.128113
 20
546.700146
 30
0.0
 10
110.756679
 20
546.700146
 30
0.0
 10
111.265836
 20
547.209310
 30
0.0
 10
111.265836
 20
547.837854
 30
0.0
  0
LWPOLYLINE
  5
1fa
100
AcDbEntity
  8
box_20120803_171113_385466
 62
7
100
AcDbPolyline
 90
2
 70
0
 10
109.466669
 20
548.781534
 30
0.0
 10
109.360836
 20
548.693340
 30
0.0
  0
LWPOLYLINE
  5
1fb
100
AcDbEntity
  8
box_20120803_171113_385466
 62
7
100
AcDbPolyline
 90
7
 70
0
 10
111.265836
 20
547.837854
 30
0.0
 10
111.265836
 20
547.978965
 30
0.0
 10
111.124725
 20
547.978965
 30
0.0
 10
110.189864
 20
547.978965
 30
0.0
 10
109.563669
 20
548.684521
 30
0.0
 10
109.466669
 20
548.781534
 30
0.0
 10
109.466669
 20
548.781534
 30
0.0
  0
SPLINE
  5
1fc
100
AcDbEntity
  8
box_20120803_171113_385466
 62
7
100
AcDbSpline
 70
8
 71
3
 72
8
 73
4
 74
0
 40
0
 40
0
 40
0
 40
0
 40
1
 40
1
 40
1
 40
1
 10
110.921892
 20
547.696743
 30
0.0
 10
110.846454
 20
547.298951
 30
0.0
 10
110.548625
 20
546.982368
 30
0.0
 10
110.128113
 20
546.982368
 30
0.0
  0
SPLINE
  5
1fd
100
AcDbEntity
  8
box_20120803_171113_385466
 62
7
100
AcDbSpline
 70
8
 71
3
 72
8
 73
4
 74
0
 40
0
 40
0
 40
0
 40
0
 40
1
 40
1
 40
1
 40
1
 10
110.128113
 20
546.982368
 30
0.0
 10
109.652117
 20
546.982368
 30
0.0
 10
109.263836
 20
547.361851
 30
0.0
 10
109.263836
 20
547.837854
 30
0.0
  0
SPLINE
  5
1fe
100
AcDbEntity
  8
box_20120803_171113_385466
 62
7
100
AcDbSpline
 70
8
 71
3
 72
8
 73
4
 74
0
 40
0
 40
0
 40
0
 40
0
 40
1
 40
1
 40
1
 40
1
 10
109.263836
 20
547.837854
 30
0.0
 10
109.263836
 20
548.030612
 30
0.0
 10
109.349999
 20
548.208482
 30
0.0
 10
109.466669
 20
548.358201
 30
0.0
  0
LWPOLYLINE
  5
1ff
100
AcDbEntity
  8
box_20120803_171113_385466
 62
7
100
AcDbPolyline
 90
5
 70
0
 10
109.466669
 20
548.358201
 30
0.0
 10
110.022280
 20
547.749695
 30
0.0
 10
110.057558
 20
547.696743
 30
0.0
 10
110.128113
 20
547.696743
 30
0.0
 10
110.921892
 20
547.696743
 30
0.0
  0
LWPOLYLINE
  5
200
100
AcDbEntity
  8
box_20120803_171113_385466
 62
7
100
AcDbPolyline
 90
2
 70
0
 10
109.466669
 20
548.358201
 30
0.0
 10
109.466669
 20
548.358201
 30
0.0
  0
LWPOLYLINE
  5
201
100
AcDbEntity
  8
box_20120803_171113_385466
 62
7
100
AcDbPolyline
 90
4
 70
0
 10
299.127157
 20
823.656807
 30
0.0
 10
302.042565
 20
823.656807
 30
0.0
 10
302.042565
 20
500.056079
 30
0.0
 10
299.125587
 20
500.056079
 30
0.0
  0
SPLINE
  5
202
100
AcDbEntity
  8
box_20120803_171113_385466
 62
7
100
AcDbSpline
 70
8
 71
3
 72
8
 73
4
 74
0
 40
0
 40
0
 40
0
 40
0
 40
1
 40
1
 40
1
 40
1
 10
315.053574
 20
548.792082
 30
0.0
 10
315.295121
 20
548.575689
 30
0.0
 10
315.432775
 20
548.260870
 30
0.0
 10
315.432775
 20
547.936596
 30
0.0
  0
SPLINE
  5
203
100
AcDbEntity
  8
box_20120803_171113_385466
 62
7
100
AcDbSpline
 70
8
 71
3
 72
8
 73
4
 74
0
 40
0
 40
0
 40
0
 40
0
 40
1
 40
1
 40
1
 40
1
 10
315.432775
 20
547.936596
 30
0.0
 10
315.432775
 20
547.308052
 30
0.0
 10
314.914827
 20
546.798888
 30
0.0
 10
314.286283
 20
546.798888
 30
0.0
  0
SPLINE
  5
204
100
AcDbEntity
  8
box_20120803_171113_385466
 62
7
100
AcDbSpline
 70
8
 71
3
 72
8
 73
4
 74
0
 40
0
 40
0
 40
0
 40
0
 40
1
 40
1
 40
1
 40
1
 10
314.286283
 20
546.798888
 30
0.0
 10
313.657703
 20
546.798888
 30
0.0
 10
313.148574
 20
547.308052
 30
0.0
 10
313.148574
 20
547.936596
 30
0.0
  0
LWPOLYLINE
  5
205
100
AcDbEntity
  8
box_20120803_171113_385466
 62
7
100
AcDbPolyline
 90
2
 70
0
 10
314.947741
 20
548.880277
 30
0.0
 10
315.053574
 20
548.792082
 30
0.0
  0
LWPOLYLINE
  5
206
100
AcDbEntity
  8
box_20120803_171113_385466
 62
7
100
AcDbPolyline
 90
7
 70
0
 10
313.148574
 20
547.936596
 30
0.0
 10
313.148574
 20
548.077707
 30
0.0
 10
313.289685
 20
548.077707
 30
0.0
 10
314.224547
 20
548.077707
 30
0.0
 10
314.850727
 20
548.783263
 30
0.0
 10
314.947741
 20
548.880277
 30
0.0
 10
314.947741
 20
548.880277
 30
0.0
  0
SPLINE
  5
207
100
AcDbEntity
  8
box_20120803_171113_385466
 62
7
100
AcDbSpline
 70
8
 71
3
 72
8
 73
4
 74
0
 40
0
 40
0
 40
0
 40
0
 40
1
 40
1
 40
1
 40
1
 10
313.492497
 20
547.795485
 30
0.0
 10
313.567957
 20
547.397693
 30
0.0
 10
313.865772
 20
547.081110
 30
0.0
 10
314.286283
 20
547.081110
 30
0.0
  0
SPLINE
  5
208
100
AcDbEntity
  8
box_20120803_171113_385466
 62
7
100
AcDbSpline
 70
8
 71
3
 72
8
 73
4
 74
0
 40
0
 40
0
 40
0
 40
0
 40
1
 40
1
 40
1
 40
1
 10
314.286283
 20
547.081110
 30
0.0
 10
314.762286
 20
547.081110
 30
0.0
 10
315.150553
 20
547.460593
 30
0.0
 10
315.150553
 20
547.936596
 30
0.0
  0
SPLINE
  5
209
100
AcDbEntity
  8
box_20120803_171113_385466
 62
7
100
AcDbSpline
 70
8
 71
3
 72
8
 73
4
 74
0
 40
0
 40
0
 40
0
 40
0
 40
1
 40
1
 40
1
 40
1
 10
315.150553
 20
547.936596
 30
0.0
 10
315.150553
 20
548.129354
 30
0.0
 10
315.064405
 20
548.307225
 30
0.0
 10
314.947741
 20
548.456944
 30
0.0
  0
LWPOLYLINE
  5
20a
100
AcDbEntity
  8
box_20120803_171113_385466
 62
7
100
AcDbPolyline
 90
5
 70
0
 10
314.947741
 20
548.456944
 30
0.0
 10
314.392116
 20
547.848402
 30
0.0
 10
314.356838
 20
547.795485
 30
0.0
 10
314.286283
 20
547.795485
 30
0.0
 10
313.492497
 20
547.795485
 30
0.0
  0
SPLINE
  5
20b
100
AcDbEntity
  8
box_20120803_171113_385466
 62
7
100
AcDbSpline
 70
8
 71
3
 72
8
 73
4
 74
0
 40
0
 40
0
 40
0
 40
0
 40
1
 40
1
 40
1
 40
1
 10
430.140348
 20
777.704851
 30
0.0
 10
430.140348
 20
775.996058
 30
0.0
 10
431.525615
 20
774.610792
 30
0.0
 10
433.234408
 20
774.610792
 30
0.0
  0
SPLINE
  5
20c
100
AcDbEntity
  8
box_20120803_171113_385466
 62
7
100
AcDbSpline
 70
8
 71
3
 72
8
 73
4
 74
0
 40
0
 40
0
 40
0
 40
0
 40
1
 40
1
 40
1
 40
1
 10
433.234408
 20
774.610792
 30
0.0
 10
434.943200
 20
774.610792
 30
0.0
 10
436.328467
 20
775.996058
 30
0.0
 10
436.328467
 20
777.704851
 30
0.0
  0
SPLINE
  5
20d
100
AcDbEntity
  8
box_20120803_171113_385466
 62
7
100
AcDbSpline
 70
8
 71
3
 72
8
 73
4
 74
0
 40
0
 40
0
 40
0
 40
0
 40
1
 40
1
 40
1
 40
1
 10
436.328467
 20
777.704851
 30
0.0
 10
436.328467
 20
779.413644
 30
0.0
 10
434.943200
 20
780.798910
 30
0.0
 10
433.234408
 20
780.798910
 30
0.0
  0
SPLINE
  5
20e
100
AcDbEntity
  8
box_20120803_171113_385466
 62
7
100
AcDbSpline
 70
8
 71
3
 72
8
 73
4
 74
0
 40
0
 40
0
 40
0
 40
0
 40
1
 40
1
 40
1
 40
1
 10
433.234408
 20
780.798910
 30
0.0
 10
431.525615
 20
780.798910
 30
0.0
 10
430.140348
 20
779.413644
 30
0.0
 10
430.140348
 20
777.704851
 30
0.0
  0
LWPOLYLINE
  5
20f
100
AcDbEntity
  8
box_20120803_171113_385466
 62
7
100
AcDbPolyline
 90
2
 70
0
 10
314.947741
 20
548.456944
 30
0.0
 10
314.947741
 20
548.456944
 30
0.0
  0
SPLINE
  5
210
100
AcDbEntity
  8
box_20120803_171113_385466
 62
7
100
AcDbSpline
 70
8
 71
3
 72
8
 73
4
 74
0
 40
0
 40
0
 40
0
 40
0
 40
1
 40
1
 40
1
 40
1
 10
433.379422
 20
687.704821
 30
0.0
 10
433.379422
 20
686.062031
 30
0.0
 10
434.711183
 20
684.730270
 30
0.0
 10
436.353973
 20
684.730270
 30
0.0
  0
SPLINE
  5
211
100
AcDbEntity
  8
box_20120803_171113_385466
 62
7
100
AcDbSpline
 70
8
 71
3
 72
8
 73
4
 74
0
 40
0
 40
0
 40
0
 40
0
 40
1
 40
1
 40
1
 40
1
 10
436.353973
 20
684.730270
 30
0.0
 10
437.996764
 20
684.730270
 30
0.0
 10
439.328525
 20
686.062031
 30
0.0
 10
439.328525
 20
687.704821
 30
0.0
  0
SPLINE
  5
212
100
AcDbEntity
  8
box_20120803_171113_385466
 62
7
100
AcDbSpline
 70
8
 71
3
 72
8
 73
4
 74
0
 40
0
 40
0
 40
0
 40
0
 40
1
 40
1
 40
1
 40
1
 10
439.328525
 20
687.704821
 30
0.0
 10
439.328525
 20
689.347612
 30
0.0
 10
437.996764
 20
690.679373
 30
0.0
 10
436.353973
 20
690.679373
 30
0.0
  0
SPLINE
  5
213
100
AcDbEntity
  8
box_20120803_171113_385466
 62
7
100
AcDbSpline
 70
8
 71
3
 72
8
 73
4
 74
0
 40
0
 40
0
 40
0
 40
0
 40
1
 40
1
 40
1
 40
1
 10
436.353973
 20
690.679373
 30
0.0
 10
434.711183
 20
690.679373
 30
0.0
 10
433.379422
 20
689.347612
 30
0.0
 10
433.379422
 20
687.704821
 30
0.0
  0
LWPOLYLINE
  5
214
100
AcDbEntity
  8
box_20120803_171113_385466
 62
7
100
AcDbPolyline
 90
2
 70
0
 10
430.140348
 20
777.704851
 30
0.0
 10
430.140348
 20
777.704851
 30
0.0
  0
SPLINE
  5
215
100
AcDbEntity
  8
box_20120803_171113_385466
 62
7
100
AcDbSpline
 70
8
 71
3
 72
8
 73
4
 74
0
 40
0
 40
0
 40
0
 40
0
 40
1
 40
1
 40
1
 40
1
 10
484.204263
 20
777.747934
 30
0.0
 10
484.204263
 20
749.581387
 30
0.0
 10
461.370768
 20
726.747891
 30
0.0
 10
433.204283
 20
726.747891
 30
0.0
  0
SPLINE
  5
216
100
AcDbEntity
  8
box_20120803_171113_385466
 62
7
100
AcDbSpline
 70
8
 71
3
 72
8
 73
4
 74
0
 40
0
 40
0
 40
0
 40
0
 40
1
 40
1
 40
1
 40
1
 10
433.204283
 20
726.747891
 30
0.0
 10
405.037736
 20
726.747891
 30
0.0
 10
382.204240
 20
749.581387
 30
0.0
 10
382.204240
 20
777.747934
 30
0.0
  0
SPLINE
  5
217
100
AcDbEntity
  8
box_20120803_171113_385466
 62
7
100
AcDbSpline
 70
8
 71
3
 72
8
 73
4
 74
0
 40
0
 40
0
 40
0
 40
0
 40
1
 40
1
 40
1
 40
1
 10
382.204240
 20
777.747934
 30
0.0
 10
382.204240
 20
805.914481
 30
0.0
 10
405.037736
 20
828.747914
 30
0.0
 10
433.204283
 20
828.747914
 30
0.0
  0
SPLINE
  5
218
100
AcDbEntity
  8
box_20120803_171113_385466
 62
7
100
AcDbSpline
 70
8
 71
3
 72
8
 73
4
 74
0
 40
0
 40
0
 40
0
 40
0
 40
1
 40
1
 40
1
 40
1
 10
433.204283
 20
828.747914
 30
0.0
 10
461.370768
 20
828.747914
 30
0.0
 10
484.204263
 20
805.914481
 30
0.0
 10
484.204263
 20
777.747934
 30
0.0
  0
LWPOLYLINE
  5
219
100
AcDbEntity
  8
box_20120803_171113_385466
 62
7
100
AcDbPolyline
 90
2
 70
0
 10
433.379422
 20
687.704821
 30
0.0
 10
433.379422
 20
687.704821
 30
0.0
  0
SPLINE
  5
21a
100
AcDbEntity
  8
box_20120803_171113_385466
 62
7
100
AcDbSpline
 70
8
 71
3
 72
8
 73
4
 74
0
 40
0
 40
0
 40
0
 40
0
 40
1
 40
1
 40
1
 40
1
 10
472.328529
 20
687.747901
 30
0.0
 10
472.328529
 20
667.934236
 30
0.0
 10
456.266388
 20
651.872066
 30
0.0
 10
436.452723
 20
651.872066
 30
0.0
  0
SPLINE
  5
21b
100
AcDbEntity
  8
box_20120803_171113_385466
 62
7
100
AcDbSpline
 70
8
 71
3
 72
8
 73
4
 74
0
 40
0
 40
0
 40
0
 40
0
 40
1
 40
1
 40
1
 40
1
 10
436.452723
 20
651.872066
 30
0.0
 10
416.639029
 20
651.872066
 30
0.0
 10
400.576888
 20
667.934236
 30
0.0
 10
400.576888
 20
687.747901
 30
0.0
  0
SPLINE
  5
21c
100
AcDbEntity
  8
box_20120803_171113_385466
 62
7
100
AcDbSpline
 70
8
 71
3
 72
8
 73
4
 74
0
 40
0
 40
0
 40
0
 40
0
 40
1
 40
1
 40
1
 40
1
 10
400.576888
 20
687.747901
 30
0.0
 10
400.576888
 20
707.561566
 30
0.0
 10
416.639029
 20
723.623708
 30
0.0
 10
436.452723
 20
723.623708
 30
0.0
  0
SPLINE
  5
21d
100
AcDbEntity
  8
box_20120803_171113_385466
 62
7
100
AcDbSpline
 70
8
 71
3
 72
8
 73
4
 74
0
 40
0
 40
0
 40
0
 40
0
 40
1
 40
1
 40
1
 40
1
 10
436.452723
 20
723.623708
 30
0.0
 10
456.266388
 20
723.623708
 30
0.0
 10
472.328529
 20
707.561566
 30
0.0
 10
472.328529
 20
687.747901
 30
0.0
  0
LWPOLYLINE
  5
21e
100
AcDbEntity
  8
box_20120803_171113_385466
 62
7
100
AcDbPolyline
 90
2
 70
0
 10
484.204263
 20
777.747934
 30
0.0
 10
484.204263
 20
777.747934
 30
0.0
  0
SPLINE
  5
21f
100
AcDbEntity
  8
box_20120803_171113_385466
 62
7
100
AcDbSpline
 70
8
 71
3
 72
8
 73
4
 74
0
 40
0
 40
0
 40
0
 40
0
 40
1
 40
1
 40
1
 40
1
 10
434.967160
 20
548.704900
 30
0.0
 10
434.967160
 20
546.996107
 30
0.0
 10
436.352427
 20
545.610841
 30
0.0
 10
438.061219
 20
545.610841
 30
0.0
  0
SPLINE
  5
220
100
AcDbEntity
  8
box_20120803_171113_385466
 62
7
100
AcDbSpline
 70
8
 71
3
 72
8
 73
4
 74
0
 40
0
 40
0
 40
0
 40
0
 40
1
 40
1
 40
1
 40
1
 10
438.061219
 20
545.610841
 30
0.0
 10
439.770012
 20
545.610841
 30
0.0
 10
441.155278
 20
546.996107
 30
0.0
 10
441.155278
 20
548.704900
 30
0.0
  0
SPLINE
  5
221
100
AcDbEntity
  8
box_20120803_171113_385466
 62
7
100
AcDbSpline
 70
8
 71
3
 72
8
 73
4
 74
0
 40
0
 40
0
 40
0
 40
0
 40
1
 40
1
 40
1
 40
1
 10
441.155278
 20
548.704900
 30
0.0
 10
441.155278
 20
550.413692
 30
0.0
 10
439.770012
 20
551.798959
 30
0.0
 10
438.061219
 20
551.798959
 30
0.0
  0
SPLINE
  5
222
100
AcDbEntity
  8
box_20120803_171113_385466
 62
7
100
AcDbSpline
 70
8
 71
3
 72
8
 73
4
 74
0
 40
0
 40
0
 40
0
 40
0
 40
1
 40
1
 40
1
 40
1
 10
438.061219
 20
551.798959
 30
0.0
 10
436.352427
 20
551.798959
 30
0.0
 10
434.967160
 20
550.413692
 30
0.0
 10
434.967160
 20
548.704900
 30
0.0
  0
LWPOLYLINE
  5
223
100
AcDbEntity
  8
box_20120803_171113_385466
 62
7
100
AcDbPolyline
 90
2
 70
0
 10
472.328529
 20
687.747901
 30
0.0
 10
472.328529
 20
687.747901
 30
0.0
  0
SPLINE
  5
224
100
AcDbEntity
  8
box_20120803_171113_385466
 62
7
100
AcDbSpline
 70
8
 71
3
 72
8
 73
4
 74
0
 40
0
 40
0
 40
0
 40
0
 40
1
 40
1
 40
1
 40
1
 10
438.206233
 20
458.704870
 30
0.0
 10
438.206233
 20
457.062080
 30
0.0
 10
439.537994
 20
455.730319
 30
0.0
 10
441.180785
 20
455.730319
 30
0.0
  0
SPLINE
  5
225
100
AcDbEntity
  8
box_20120803_171113_385466
 62
7
100
AcDbSpline
 70
8
 71
3
 72
8
 73
4
 74
0
 40
0
 40
0
 40
0
 40
0
 40
1
 40
1
 40
1
 40
1
 10
441.180785
 20
455.730319
 30
0.0
 10
442.823575
 20
455.730319
 30
0.0
 10
444.155336
 20
457.062080
 30
0.0
 10
444.155336
 20
458.704870
 30
0.0
  0
SPLINE
  5
226
100
AcDbEntity
  8
box_20120803_171113_385466
 62
7
100
AcDbSpline
 70
8
 71
3
 72
8
 73
4
 74
0
 40
0
 40
0
 40
0
 40
0
 40
1
 40
1
 40
1
 40
1
 10
444.155336
 20
458.704870
 30
0.0
 10
444.155336
 20
460.347661
 30
0.0
 10
442.823575
 20
461.679422
 30
0.0
 10
441.180785
 20
461.679422
 30
0.0
  0
SPLINE
  5
227
100
AcDbEntity
  8
box_20120803_171113_385466
 62
7
100
AcDbSpline
 70
8
 71
3
 72
8
 73
4
 74
0
 40
0
 40
0
 40
0
 40
0
 40
1
 40
1
 40
1
 40
1
 10
441.180785
 20
461.679422
 30
0.0
 10
439.537994
 20
461.679422
 30
0.0
 10
438.206233
 20
460.347661
 30
0.0
 10
438.206233
 20
458.704870
 30
0.0
  0
LWPOLYLINE
  5
228
100
AcDbEntity
  8
box_20120803_171113_385466
 62
7
100
AcDbPolyline
 90
2
 70
0
 10
434.967160
 20
548.704900
 30
0.0
 10
434.967160
 20
548.704900
 30
0.0
  0
SPLINE
  5
229
100
AcDbEntity
  8
box_20120803_171113_385466
 62
7
100
AcDbSpline
 70
8
 71
3
 72
8
 73
4
 74
0
 40
0
 40
0
 40
0
 40
0
 40
1
 40
1
 40
1
 40
1
 10
489.031075
 20
548.747983
 30
0.0
 10
489.031075
 20
520.581436
 30
0.0
 10
466.197579
 20
497.747940
 30
0.0
 10
438.031094
 20
497.747940
 30
0.0
  0
SPLINE
  5
22a
100
AcDbEntity
  8
box_20120803_171113_385466
 62
7
100
AcDbSpline
 70
8
 71
3
 72
8
 73
4
 74
0
 40
0
 40
0
 40
0
 40
0
 40
1
 40
1
 40
1
 40
1
 10
438.031094
 20
497.747940
 30
0.0
 10
409.864547
 20
497.747940
 30
0.0
 10
387.031052
 20
520.581436
 30
0.0
 10
387.031052
 20
548.747983
 30
0.0
  0
SPLINE
  5
22b
100
AcDbEntity
  8
box_20120803_171113_385466
 62
7
100
AcDbSpline
 70
8
 71
3
 72
8
 73
4
 74
0
 40
0
 40
0
 40
0
 40
0
 40
1
 40
1
 40
1
 40
1
 10
387.031052
 20
548.747983
 30
0.0
 10
387.031052
 20
576.914530
 30
0.0
 10
409.864547
 20
599.747963
 30
0.0
 10
438.031094
 20
599.747963
 30
0.0
  0
SPLINE
  5
22c
100
AcDbEntity
  8
box_20120803_171113_385466
 62
7
100
AcDbSpline
 70
8
 71
3
 72
8
 73
4
 74
0
 40
0
 40
0
 40
0
 40
0
 40
1
 40
1
 40
1
 40
1
 10
438.031094
 20
599.747963
 30
0.0
 10
466.197579
 20
599.747963
 30
0.0
 10
489.031075
 20
576.914530
 30
0.0
 10
489.031075
 20
548.747983
 30
0.0
  0
LWPOLYLINE
  5
22d
100
AcDbEntity
  8
box_20120803_171113_385466
 62
7
100
AcDbPolyline
 90
2
 70
0
 10
438.206233
 20
458.704870
 30
0.0
 10
438.206233
 20
458.704870
 30
0.0
  0
SPLINE
  5
22e
100
AcDbEntity
  8
box_20120803_171113_385466
 62
7
100
AcDbSpline
 70
8
 71
3
 72
8
 73
4
 74
0
 40
0
 40
0
 40
0
 40
0
 40
1
 40
1
 40
1
 40
1
 10
477.155341
 20
458.747950
 30
0.0
 10
477.155341
 20
438.934285
 30
0.0
 10
461.093199
 20
422.872115
 30
0.0
 10
441.279534
 20
422.872115
 30
0.0
  0
SPLINE
  5
22f
100
AcDbEntity
  8
box_20120803_171113_385466
 62
7
100
AcDbSpline
 70
8
 71
3
 72
8
 73
4
 74
0
 40
0
 40
0
 40
0
 40
0
 40
1
 40
1
 40
1
 40
1
 10
441.279534
 20
422.872115
 30
0.0
 10
421.465841
 20
422.872115
 30
0.0
 10
405.403699
 20
438.934285
 30
0.0
 10
405.403699
 20
458.747950
 30
0.0
  0
SPLINE
  5
230
100
AcDbEntity
  8
box_20120803_171113_385466
 62
7
100
AcDbSpline
 70
8
 71
3
 72
8
 73
4
 74
0
 40
0
 40
0
 40
0
 40
0
 40
1
 40
1
 40
1
 40
1
 10
405.403699
 20
458.747950
 30
0.0
 10
405.403699
 20
478.561615
 30
0.0
 10
421.465841
 20
494.623757
 30
0.0
 10
441.279534
 20
494.623757
 30
0.0
  0
SPLINE
  5
231
100
AcDbEntity
  8
box_20120803_171113_385466
 62
7
100
AcDbSpline
 70
8
 71
3
 72
8
 73
4
 74
0
 40
0
 40
0
 40
0
 40
0
 40
1
 40
1
 40
1
 40
1
 10
441.279534
 20
494.623757
 30
0.0
 10
461.093199
 20
494.623757
 30
0.0
 10
477.155341
 20
478.561615
 30
0.0
 10
477.155341
 20
458.747950
 30
0.0
  0
LWPOLYLINE
  5
232
100
AcDbEntity
  8
box_20120803_171113_385466
 62
7
100
AcDbPolyline
 90
2
 70
0
 10
489.031075
 20
548.747983
 30
0.0
 10
489.031075
 20
548.747983
 30
0.0
  0
SPLINE
  5
233
100
AcDbEntity
  8
box_20120803_171113_385466
 62
7
100
AcDbSpline
 70
8
 71
3
 72
8
 73
4
 74
0
 40
0
 40
0
 40
0
 40
0
 40
1
 40
1
 40
1
 40
1
 10
94.401040
 20
797.944881
 30
0.0
 10
105.560618
 20
797.944881
 30
0.0
 10
114.607245
 20
788.898282
 30
0.0
 10
114.607245
 20
777.738687
 30
0.0
  0
SPLINE
  5
234
100
AcDbEntity
  8
box_20120803_171113_385466
 62
7
100
AcDbSpline
 70
8
 71
3
 72
8
 73
4
 74
0
 40
0
 40
0
 40
0
 40
0
 40
1
 40
1
 40
1
 40
1
 10
114.607245
 20
777.738687
 30
0.0
 10
114.607245
 20
766.579126
 30
0.0
 10
105.560618
 20
757.532493
 30
0.0
 10
94.401040
 20
757.532493
 30
0.0
  0
SPLINE
  5
235
100
AcDbEntity
  8
box_20120803_171113_385466
 62
7
100
AcDbSpline
 70
8
 71
3
 72
8
 73
4
 74
0
 40
0
 40
0
 40
0
 40
0
 40
1
 40
1
 40
1
 40
1
 10
94.529007
 20
556.506521
 30
0.0
 10
105.688585
 20
556.506521
 30
0.0
 10
114.735211
 20
547.459923
 30
0.0
 10
114.735211
 20
536.300327
 30
0.0
  0
SPLINE
  5
236
100
AcDbEntity
  8
box_20120803_171113_385466
 62
7
100
AcDbSpline
 70
8
 71
3
 72
8
 73
4
 74
0
 40
0
 40
0
 40
0
 40
0
 40
1
 40
1
 40
1
 40
1
 10
114.735211
 20
536.300327
 30
0.0
 10
114.735211
 20
525.140767
 30
0.0
 10
105.688585
 20
516.094133
 30
0.0
 10
94.529007
 20
516.094133
 30
0.0
  0
SPLINE
  5
237
100
AcDbEntity
  8
box_20120803_171113_385466
 62
7
100
AcDbSpline
 70
8
 71
3
 72
8
 73
4
 74
0
 40
0
 40
0
 40
0
 40
0
 40
1
 40
1
 40
1
 40
1
 10
325.373023
 20
794.758274
 30
0.0
 10
314.213445
 20
794.758274
 30
0.0
 10
305.166818
 20
785.711676
 30
0.0
 10
305.166818
 20
774.552080
 30
0.0
  0
SPLINE
  5
238
100
AcDbEntity
  8
box_20120803_171113_385466
 62
7
100
AcDbSpline
 70
8
 71
3
 72
8
 73
4
 74
0
 40
0
 40
0
 40
0
 40
0
 40
1
 40
1
 40
1
 40
1
 10
305.166818
 20
774.552080
 30
0.0
 10
305.166818
 20
763.392520
 30
0.0
 10
314.213445
 20
754.345886
 30
0.0
 10
325.373023
 20
754.345886
 30
0.0
  0
SPLINE
  5
239
100
AcDbEntity
  8
box_20120803_171113_385466
 62
7
100
AcDbSpline
 70
8
 71
3
 72
8
 73
4
 74
0
 40
0
 40
0
 40
0
 40
0
 40
1
 40
1
 40
1
 40
1
 10
325.412520
 20
553.285060
 30
0.0
 10
314.252942
 20
553.285060
 30
0.0
 10
305.206315
 20
544.238462
 30
0.0
 10
305.206315
 20
533.078866
 30
0.0
  0
SPLINE
  5
23a
100
AcDbEntity
  8
box_20120803_171113_385466
 62
7
100
AcDbSpline
 70
8
 71
3
 72
8
 73
4
 74
0
 40
0
 40
0
 40
0
 40
0
 40
1
 40
1
 40
1
 40
1
 10
305.206315
 20
533.078866
 30
0.0
 10
305.206315
 20
521.919306
 30
0.0
 10
314.252942
 20
512.872673
 30
0.0
 10
325.412520
 20
512.872673
 30
0.0
  0
LWPOLYLINE
  5
23b
100
AcDbEntity
  8
box_20120803_171113_385466
 62
7
100
AcDbPolyline
 90
2
 70
0
 10
477.155341
 20
458.747950
 30
0.0
 10
477.155341
 20
458.747950
 30
0.0
  0
ENDSEC
  0
SECTION
  2
OBJECTS
  0
DICTIONARY
  5
C
330
0
100
AcDbDictionary
  3
ACAD_GROUP
350
D
  3
ACAD_MLINESTYLE
350
17
  0
DICTIONARY
  5
D
330
C
100
AcDbDictionary
  0
DICTIONARY
  5
1A
330
C
100
AcDbDictionary
  0
DICTIONARY
  5
17
330
C
100
AcDbDictionary
  3
STANDARD
350
18
  0
DICTIONARY
  5
19
330
C
100
AcDbDictionary
  0
ENDSEC
  0
EOF
